?xml version="1.0" encoding="UTF-8"?>
<!DOCTYPE svg PUBLIC "-//W3C//DTD SVG 1.1//EN" "http://www.w3.org/Graphics/SVG/1.1/DTD/svg11.dtd">
<svg xmlns="http://www.w3.org/2000/svg" version="1.1" width="1920px" height="1280px" style="shape-rendering:geometricPrecision; text-rendering:geometricPrecision; image-rendering:optimizeQuality; fill-rule:evenodd; clip-rule:evenodd" xmlns:xlink="http://www.w3.org/1999/xlink">
<g><path style="opacity:1" fill="#eaf3f8" d="M -0.5,-0.5 C 639.5,-0.5 1279.5,-0.5 1919.5,-0.5C 1919.5,426.167 1919.5,852.833 1919.5,1279.5C 1279.5,1279.5 639.5,1279.5 -0.5,1279.5C -0.5,852.833 -0.5,426.167 -0.5,-0.5 Z"/></g>
<g><path style="opacity:1" fill="#121313" d="M 1506.5,88.5 C 1507.68,88.281 1508.68,88.6143 1509.5,89.5C 1508.01,96.3997 1507.17,103.4 1507,110.5C 1506.59,110.957 1506.09,111.291 1505.5,111.5C 1505.17,109.667 1504.83,107.833 1504.5,106C 1505.12,100.153 1505.79,94.3202 1506.5,88.5 Z"/></g>
<g><path style="opacity:1" fill="#c2e5fe" d="M 1263.5,116.5 C 1262.01,133.733 1260.01,150.9 1257.5,168C 1257.67,171.167 1257.83,174.333 1258,177.5C 1258.79,180.106 1260.29,182.106 1262.5,183.5C 1262.5,186.5 1262.5,189.5 1262.5,192.5C 1243.26,192.174 1224.09,192.507 1205,193.5C 1204.33,195.5 1204.33,197.5 1205,199.5C 1208.35,215.88 1211.85,232.213 1215.5,248.5C 1215.5,250.5 1215.5,252.5 1215.5,254.5C 1219.5,254.5 1223.5,254.5 1227.5,254.5C 1221.31,258.176 1215.81,262.842 1211,268.5C 1200.88,281.624 1190.38,294.457 1179.5,307C 1020.33,307.167 861.333,307.667 702.5,308.5C 676.713,312.143 659.213,326.143 650,350.5C 649.055,354.494 648.222,358.494 647.5,362.5C 646.833,395.5 646.167,428.5 645.5,461.5C 638.543,457.923 631.21,455.256 623.5,453.5C 617.751,452.306 612.085,450.806 606.5,449C 599.164,448.118 591.831,447.285 584.5,446.5C 585.038,444.883 585.371,443.216 585.5,441.5C 604.675,440.16 615.175,429.826 617,410.5C 617.39,406.486 617.89,402.486 618.5,398.5C 618.401,396.201 617.734,394.201 616.5,392.5C 628.51,389.667 636.677,382.333 641,370.5C 642.628,365.351 644.128,360.184 645.5,355C 643.721,355.044 642.055,355.711 640.5,357C 637.833,357.667 635.167,357.667 632.5,357C 623.763,353.531 615.096,349.864 606.5,346C 592.655,341.566 579.988,343.733 568.5,352.5C 562.65,351.128 557.317,352.295 552.5,356C 540.441,368.604 536.608,383.437 541,400.5C 543.391,407.169 545.891,413.835 548.5,420.5C 549.961,430.111 550.961,439.778 551.5,449.5C 546.329,450.421 541.663,452.421 537.5,455.5C 529.522,459.979 524.356,466.646 522,475.5C 521.503,478.146 521.336,480.813 521.5,483.5C 520.646,505.024 521.312,526.524 523.5,548C 521.942,563.461 521.275,578.961 521.5,594.5C 521.679,605.19 521.345,615.857 520.5,626.5C 518.603,695.001 516.603,763.501 514.5,832C 514.527,837.58 515.194,842.914 516.5,848C 514.893,849.049 514.227,850.549 514.5,852.5C 515.5,852.5 516.5,852.5 517.5,852.5C 517.909,855.855 517.242,858.855 515.5,861.5C 514.514,865.97 514.181,870.637 514.5,875.5C 514.5,877.833 514.5,880.167 514.5,882.5C 504.457,885.515 494.457,888.849 484.5,892.5C 483.282,891.839 481.949,891.172 480.5,890.5C 456.281,850.059 433.114,809.059 411,767.5C 399.321,740.455 389.321,712.789 381,684.5C 346.826,549.837 377.993,433.671 474.5,336C 479.224,333.456 482.891,329.789 485.5,325C 506.212,307.631 527.545,290.965 549.5,275C 563.085,267.367 576.418,259.367 589.5,251C 604.833,243.667 620.167,236.333 635.5,229C 653.983,222.472 672.317,215.806 690.5,209C 742.915,197.755 795.249,186.421 847.5,175C 893.651,163.24 939.984,151.573 986.5,140C 1018.5,133.6 1050.5,126.934 1082.5,120C 1100.11,117.423 1117.78,115.09 1135.5,113C 1178.41,107.394 1221.08,108.56 1263.5,116.5 Z"/></g>
<g><path style="opacity:1" fill="#1a1b1c" d="M 1454.5,96.5 C 1457.62,102.731 1460.78,109.064 1464,115.5C 1464.78,117.319 1464.28,118.652 1462.5,119.5C 1458.91,112.661 1455.58,105.661 1452.5,98.5C 1453.24,97.8182 1453.91,97.1515 1454.5,96.5 Z"/></g>
<g><path style="opacity:1" fill="#0e0f10" d="M 1556.5,107.5 C 1560,107.565 1560.5,108.899 1558,111.5C 1554.23,116.714 1550.23,121.714 1546,126.5C 1544.46,125.423 1544.46,124.089 1546,122.5C 1549.72,117.62 1553.22,112.62 1556.5,107.5 Z"/></g>
<g><path style="opacity:1" fill="#15375b" d="M 1366.5,190.5 C 1364.52,195.915 1361.52,200.749 1357.5,205C 1357.17,205.167 1356.83,205.333 1356.5,205.5C 1355.53,203.604 1355.2,201.604 1355.5,199.5C 1355.67,192.825 1355.5,186.158 1355,179.5C 1354.3,175.047 1352.8,171.047 1350.5,167.5C 1348.11,162.775 1344.44,159.442 1339.5,157.5C 1337.4,156.065 1335.07,154.898 1332.5,154C 1326.86,153.096 1321.2,152.596 1315.5,152.5C 1315.5,141.167 1315.5,129.833 1315.5,118.5C 1305.14,120.992 1294.81,120.992 1284.5,118.5C 1283.3,118.846 1283.3,119.346 1284.5,120C 1288.42,120.799 1288.42,121.299 1284.5,121.5C 1280.46,120.968 1277.29,118.968 1275,115.5C 1273.92,118.248 1272.75,120.915 1271.5,123.5C 1274.77,131.885 1279.44,139.385 1285.5,146C 1287.91,147.707 1290.58,148.54 1293.5,148.5C 1294.83,150.195 1294.49,151.528 1292.5,152.5C 1290.14,152.674 1287.81,153.007 1285.5,153.5C 1275.6,154.895 1268.77,160.228 1265,169.5C 1264.65,174.389 1263.81,179.056 1262.5,183.5C 1260.29,182.106 1258.79,180.106 1258,177.5C 1257.83,174.333 1257.67,171.167 1257.5,168C 1260.01,150.9 1262.01,133.733 1263.5,116.5C 1264.3,105.604 1268.3,96.1037 1275.5,88C 1290.48,79.8802 1303.32,82.3802 1314,95.5C 1318.26,103.009 1322.26,110.676 1326,118.5C 1327.14,120.609 1328.64,122.442 1330.5,124C 1338.45,127.328 1346.45,130.662 1354.5,134C 1361.68,140.187 1365.84,148.02 1367,157.5C 1369.04,168.543 1368.87,179.543 1366.5,190.5 Z"/></g>
<g><path style="opacity:1" fill="#f8dfb2" d="M 1315.5,152.5 C 1314.66,154.173 1313.32,155.34 1311.5,156C 1307.5,156.667 1303.5,156.667 1299.5,156C 1298.58,155.722 1297.92,155.222 1297.5,154.5C 1301.58,152.953 1305.24,150.62 1308.5,147.5C 1310.59,144.476 1311.42,141.142 1311,137.5C 1306.88,143.816 1301.04,147.482 1293.5,148.5C 1290.58,148.54 1287.91,147.707 1285.5,146C 1279.44,139.385 1274.77,131.885 1271.5,123.5C 1272.75,120.915 1273.92,118.248 1275,115.5C 1277.29,118.968 1280.46,120.968 1284.5,121.5C 1288.42,121.299 1288.42,120.799 1284.5,120C 1283.3,119.346 1283.3,118.846 1284.5,118.5C 1294.81,120.992 1305.14,120.992 1315.5,118.5C 1315.5,129.833 1315.5,141.167 1315.5,152.5 Z"/></g>
<g><path style="opacity:1" fill="#141515" d="M 1411.5,131.5 C 1418.64,134.952 1425.31,139.285 1431.5,144.5C 1431.17,145.5 1430.5,146.167 1429.5,146.5C 1423.83,142.5 1418.17,138.5 1412.5,134.5C 1411.61,133.675 1411.28,132.675 1411.5,131.5 Z"/></g>
<g><path style="opacity:1" fill="#f18662" d="M 1297.5,154.5 C 1295.99,153.498 1294.32,152.831 1292.5,152.5C 1294.49,151.528 1294.83,150.195 1293.5,148.5C 1301.04,147.482 1306.88,143.816 1311,137.5C 1311.42,141.142 1310.59,144.476 1308.5,147.5C 1305.24,150.62 1301.58,152.953 1297.5,154.5 Z"/></g>
<g><path style="opacity:1" fill="#171819" d="M 1591.5,148.5 C 1593.46,148.948 1593.8,149.948 1592.5,151.5C 1586.05,154.227 1579.71,157.227 1573.5,160.5C 1572.27,159.349 1572.27,158.183 1573.5,157C 1579.56,154.049 1585.56,151.215 1591.5,148.5 Z"/></g>
<g><path style="opacity:1" fill="#f5c258" d="M 1292.5,152.5 C 1294.32,152.831 1295.99,153.498 1297.5,154.5C 1297.92,155.222 1298.58,155.722 1299.5,156C 1303.5,156.667 1307.5,156.667 1311.5,156C 1313.32,155.34 1314.66,154.173 1315.5,152.5C 1321.2,152.596 1326.86,153.096 1332.5,154C 1335.07,154.898 1337.4,156.065 1339.5,157.5C 1326.13,154.855 1319.13,160.355 1318.5,174C 1320.02,185.312 1321.35,196.646 1322.5,208C 1322.39,210.732 1321.55,213.232 1320,215.5C 1312.83,220.091 1304.99,223.091 1296.5,224.5C 1294.55,214.585 1292.38,204.585 1290,194.5C 1288.89,192.963 1287.39,192.297 1285.5,192.5C 1279.17,192.5 1272.83,192.5 1266.5,192.5C 1266.39,188.313 1267.23,184.313 1269,180.5C 1273.02,174.783 1275.69,168.45 1277,161.5C 1279.07,157.923 1281.91,155.256 1285.5,153.5C 1287.81,153.007 1290.14,152.674 1292.5,152.5 Z"/></g>
<g><path style="opacity:1" fill="#f37457" d="M 1339.5,157.5 C 1344.44,159.442 1348.11,162.775 1350.5,167.5C 1355.51,189.91 1352.01,210.91 1340,230.5C 1327.87,237.808 1314.7,242.141 1300.5,243.5C 1299.19,237.28 1297.85,230.947 1296.5,224.5C 1304.99,223.091 1312.83,220.091 1320,215.5C 1321.55,213.232 1322.39,210.732 1322.5,208C 1321.35,196.646 1320.02,185.312 1318.5,174C 1319.13,160.355 1326.13,154.855 1339.5,157.5 Z"/></g>
<g><path style="opacity:1" fill="#f27557" d="M 1285.5,153.5 C 1281.91,155.256 1279.07,157.923 1277,161.5C 1275.69,168.45 1273.02,174.783 1269,180.5C 1267.23,184.313 1266.39,188.313 1266.5,192.5C 1265.17,192.5 1263.83,192.5 1262.5,192.5C 1262.5,189.5 1262.5,186.5 1262.5,183.5C 1263.81,179.056 1264.65,174.389 1265,169.5C 1268.77,160.228 1275.6,154.895 1285.5,153.5 Z"/></g>
<g><path style="opacity:1" fill="#1e1f20" d="M 1392.5,181.5 C 1400.1,182.883 1407.76,183.55 1415.5,183.5C 1415.66,184.873 1415.49,186.207 1415,187.5C 1407.95,186.109 1400.78,185.276 1393.5,185C 1392.66,183.989 1392.33,182.822 1392.5,181.5 Z"/></g>
<g><path style="opacity:1" fill="#f2f2f2" d="M 1262.5,192.5 C 1263.83,192.5 1265.17,192.5 1266.5,192.5C 1272.83,192.5 1279.17,192.5 1285.5,192.5C 1290.4,209.692 1294.4,227.192 1297.5,245C 1297.44,247.209 1296.44,248.709 1294.5,249.5C 1268.26,249.495 1241.93,249.161 1215.5,248.5C 1211.85,232.213 1208.35,215.88 1205,199.5C 1204.33,197.5 1204.33,195.5 1205,193.5C 1224.09,192.507 1243.26,192.174 1262.5,192.5 Z"/></g>
<g><path style="opacity:1" fill="#1c1d1d" d="M 1579.5,199.5 C 1587.13,200.542 1594.8,201.209 1602.5,201.5C 1602.5,202.5 1602.5,203.5 1602.5,204.5C 1594.81,204.036 1587.14,203.37 1579.5,202.5C 1579.5,201.5 1579.5,200.5 1579.5,199.5 Z"/></g>
<g><path style="opacity:1" fill="#c2e5fd" d="M 1366.5,190.5 C 1385.93,227.518 1398.6,266.851 1404.5,308.5C 1406.41,308.216 1408.08,308.549 1409.5,309.5C 1401.13,309.705 1392.8,309.371 1384.5,308.5C 1370.67,307.669 1356.67,307.169 1342.5,307C 1347.5,301.828 1350.5,295.662 1351.5,288.5C 1352.64,282.11 1352.64,275.777 1351.5,269.5C 1349.61,256.905 1349.11,244.238 1350,231.5C 1352.73,220.857 1354.56,210.19 1355.5,199.5C 1355.2,201.604 1355.53,203.604 1356.5,205.5C 1356.83,205.333 1357.17,205.167 1357.5,205C 1361.52,200.749 1364.52,195.915 1366.5,190.5 Z"/></g>
<g><path style="opacity:1" fill="#d2d0cf" d="M 1285.5,192.5 C 1287.39,192.297 1288.89,192.963 1290,194.5C 1292.38,204.585 1294.55,214.585 1296.5,224.5C 1297.85,230.947 1299.19,237.28 1300.5,243.5C 1300.37,245.216 1300.04,246.883 1299.5,248.5C 1297.88,249.038 1296.22,249.371 1294.5,249.5C 1296.44,248.709 1297.44,247.209 1297.5,245C 1294.4,227.192 1290.4,209.692 1285.5,192.5 Z"/></g>
<g><path style="opacity:1" fill="#f4c259" d="M 1350.5,167.5 C 1352.8,171.047 1354.3,175.047 1355,179.5C 1355.5,186.158 1355.67,192.825 1355.5,199.5C 1354.56,210.19 1352.73,220.857 1350,231.5C 1349.11,244.238 1349.61,256.905 1351.5,269.5C 1345.41,268.548 1339.41,267.215 1333.5,265.5C 1312.16,262.3 1290.83,258.967 1269.5,255.5C 1271.29,254.691 1273.29,254.191 1275.5,254C 1281.82,253.5 1288.16,253.334 1294.5,253.5C 1310.51,253.833 1326.51,253.499 1342.5,252.5C 1343.71,251.28 1343.71,250.113 1342.5,249C 1328.17,248.5 1313.84,248.333 1299.5,248.5C 1300.04,246.883 1300.37,245.216 1300.5,243.5C 1314.7,242.141 1327.87,237.808 1340,230.5C 1352.01,210.91 1355.51,189.91 1350.5,167.5 Z"/></g>
<g><path style="opacity:1" fill="#161617" d="M 1515.5,297.5 C 1516.32,294.236 1516.66,290.902 1516.5,287.5C 1498.6,288.092 1480.93,286.425 1463.5,282.5C 1462.29,282.747 1461.62,283.414 1461.5,284.5C 1460.5,284.5 1459.5,284.5 1458.5,284.5C 1458.05,281.86 1456.88,279.527 1455,277.5C 1455.17,269.234 1453.84,261.234 1451,253.5C 1441.65,240.81 1433.99,227.143 1428,212.5C 1421.61,176.11 1434.11,148.277 1465.5,129C 1500.12,114.91 1529.96,121.743 1555,149.5C 1574.33,178.469 1574.33,207.469 1555,236.5C 1546.98,246.182 1538.65,255.516 1530,264.5C 1526.79,270.855 1524.46,277.521 1523,284.5C 1519.7,288.11 1518.2,292.443 1518.5,297.5C 1517.5,297.5 1516.5,297.5 1515.5,297.5 Z"/></g>
<g><path style="opacity:1" fill="#f9f9f9" d="M 1483.5,219.5 C 1491.75,221.31 1500.08,222.644 1508.5,223.5C 1502.54,243.384 1498.88,263.717 1497.5,284.5C 1492.51,284.084 1487.51,283.751 1482.5,283.5C 1483.36,262.179 1483.69,240.846 1483.5,219.5 Z"/></g>
<g><path style="opacity:1" fill="#fdfdfd" d="M 1485.5,124.5 C 1519.72,121.857 1544.89,135.523 1561,165.5C 1570.76,192.438 1566.76,217.104 1549,239.5C 1540.22,247.276 1532.55,255.942 1526,265.5C 1524.08,271.829 1521.91,277.995 1519.5,284C 1513.18,284.5 1506.84,284.666 1500.5,284.5C 1502.13,263.753 1505.8,243.42 1511.5,223.5C 1515.16,222.003 1518.83,220.503 1522.5,219C 1528.32,213.461 1527.82,208.961 1521,205.5C 1514.87,207.726 1511.04,212.059 1509.5,218.5C 1500.32,220.215 1491.49,219.215 1483,215.5C 1481.29,208.69 1477.29,204.024 1471,201.5C 1465.4,202.438 1464.06,205.438 1467,210.5C 1470.74,214.2 1475.07,216.867 1480,218.5C 1480.86,222.624 1481.36,226.79 1481.5,231C 1480.51,248.155 1479.85,265.322 1479.5,282.5C 1471.94,282.137 1464.77,280.471 1458,277.5C 1457.87,268.956 1456.54,260.623 1454,252.5C 1446.58,241.999 1439.91,230.999 1434,219.5C 1423.03,184.258 1432.53,155.758 1462.5,134C 1469.9,129.93 1477.56,126.763 1485.5,124.5 Z"/></g>
<g><path style="opacity:1" fill="#e5e5e5" d="M 1519.5,208.5 C 1523.23,208.78 1524.39,210.78 1523,214.5C 1519.92,217.48 1516.42,218.813 1512.5,218.5C 1513.88,214.361 1516.22,211.028 1519.5,208.5 Z"/></g>
<g><path style="opacity:1" fill="#ededed" d="M 1469.5,204.5 C 1475.38,205.271 1478.21,208.605 1478,214.5C 1474.43,212.931 1471.43,210.598 1469,207.5C 1468.53,206.423 1468.7,205.423 1469.5,204.5 Z"/></g>
<g><path style="opacity:1" fill="#9d9c9c" d="M 1299.5,248.5 C 1313.84,248.333 1328.17,248.5 1342.5,249C 1343.71,250.113 1343.71,251.28 1342.5,252.5C 1326.51,253.499 1310.51,253.833 1294.5,253.5C 1294.5,252.167 1294.5,250.833 1294.5,249.5C 1296.22,249.371 1297.88,249.038 1299.5,248.5 Z"/></g>
<g><path style="opacity:1" fill="#cfcfcd" d="M 1215.5,248.5 C 1241.93,249.161 1268.26,249.495 1294.5,249.5C 1294.5,250.833 1294.5,252.167 1294.5,253.5C 1288.16,253.334 1281.82,253.5 1275.5,254C 1273.29,254.191 1271.29,254.691 1269.5,255.5C 1255.56,250.777 1241.56,250.444 1227.5,254.5C 1223.5,254.5 1219.5,254.5 1215.5,254.5C 1215.5,252.5 1215.5,250.5 1215.5,248.5 Z"/></g>
<g><path style="opacity:1" fill="#486eb0" d="M 1269.5,255.5 C 1290.83,258.967 1312.16,262.3 1333.5,265.5C 1330.55,280.212 1336.55,287.879 1351.5,288.5C 1350.5,295.662 1347.5,301.828 1342.5,307C 1356.67,307.169 1370.67,307.669 1384.5,308.5C 1369.83,308.333 1355.16,308.5 1340.5,309C 1339.58,309.278 1338.92,309.778 1338.5,310.5C 1332.77,312.057 1326.94,313.057 1321,313.5C 1310.85,312.269 1300.69,311.269 1290.5,310.5C 1288.16,308.96 1285.5,308.294 1282.5,308.5C 1281.79,307.596 1280.79,307.263 1279.5,307.5C 1276.92,306.512 1274.26,305.512 1271.5,304.5C 1263.89,302.783 1256.72,299.783 1250,295.5C 1241.86,303.301 1233.36,310.801 1224.5,318C 1223.75,318.671 1223.41,319.504 1223.5,320.5C 1221.01,322.255 1218.68,324.255 1216.5,326.5C 1215.17,327.5 1213.83,328.5 1212.5,329.5C 1211.66,329.842 1211.33,330.508 1211.5,331.5C 1208.33,334.777 1204.67,337.61 1200.5,340C 1196.68,343.649 1193.02,347.483 1189.5,351.5C 1179.58,345.238 1170.24,338.238 1161.5,330.5C 1162.6,329.395 1163.27,328.062 1163.5,326.5C 1167.3,322.909 1170.63,318.909 1173.5,314.5C 1174.49,313.205 1175.49,311.872 1176.5,310.5C 1177.29,310.217 1177.96,309.717 1178.5,309C 1019.83,308.5 861.167,308.333 702.5,308.5C 861.333,307.667 1020.33,307.167 1179.5,307C 1190.38,294.457 1200.88,281.624 1211,268.5C 1215.81,262.842 1221.31,258.176 1227.5,254.5C 1241.56,250.444 1255.56,250.777 1269.5,255.5 Z"/></g>
<g><path style="opacity:1" fill="#154430" d="M 1333.5,265.5 C 1339.41,267.215 1345.41,268.548 1351.5,269.5C 1352.64,275.777 1352.64,282.11 1351.5,288.5C 1336.55,287.879 1330.55,280.212 1333.5,265.5 Z"/></g>
<g><path style="opacity:1" fill="#131012" d="M 1460.5,288.5 C 1460.5,289.5 1460.5,290.5 1460.5,291.5C 1458.09,291.306 1457.09,289.973 1457.5,287.5C 1458.79,287.263 1459.79,287.596 1460.5,288.5 Z"/></g>
<g><path style="opacity:1" fill="#1345f0" d="M 1515.5,297.5 C 1497.49,293.164 1479.49,288.83 1461.5,284.5C 1461.62,283.414 1462.29,282.747 1463.5,282.5C 1480.93,286.425 1498.6,288.092 1516.5,287.5C 1516.66,290.902 1516.32,294.236 1515.5,297.5 Z"/></g>
<g><path style="opacity:1" fill="#1d1d1c" d="M 1459.5,294.5 C 1459.5,295.5 1459.5,296.5 1459.5,297.5C 1458.5,297.5 1457.5,297.5 1456.5,297.5C 1456.15,294.506 1457.15,293.506 1459.5,294.5 Z"/></g>
<g><path style="opacity:1" fill="#2549f3" d="M 1460.5,288.5 C 1479.14,291.546 1497.47,295.546 1515.5,300.5C 1515.5,301.5 1515.5,302.5 1515.5,303.5C 1497.09,299.821 1478.76,295.821 1460.5,291.5C 1460.5,290.5 1460.5,289.5 1460.5,288.5 Z"/></g>
<g><path style="opacity:1" fill="#110f18" d="M 1459.5,301.5 C 1459.5,302.5 1459.5,303.5 1459.5,304.5C 1458.5,304.5 1457.5,304.5 1456.5,304.5C 1456.5,303.5 1456.5,302.5 1456.5,301.5C 1457.5,301.5 1458.5,301.5 1459.5,301.5 Z"/></g>
<g><path style="opacity:1" fill="#345188" d="M 1271.5,304.5 C 1270.5,304.5 1269.5,304.5 1268.5,304.5C 1268.5,305.5 1268.5,306.5 1268.5,307.5C 1272.17,307.5 1275.83,307.5 1279.5,307.5C 1280.79,307.263 1281.79,307.596 1282.5,308.5C 1277.06,307.892 1272.06,308.558 1267.5,310.5C 1265.21,315.646 1263.21,320.979 1261.5,326.5C 1260.77,327.708 1260.43,329.041 1260.5,330.5C 1302.34,330.168 1344,330.501 1385.5,331.5C 1354.5,331.5 1323.5,331.5 1292.5,331.5C 1281.5,331.5 1270.5,331.5 1259.5,331.5C 1258.5,335.5 1257.5,339.5 1256.5,343.5C 1252.07,353.793 1248.4,364.46 1245.5,375.5C 1234.17,375.5 1222.83,375.5 1211.5,375.5C 1214.5,360.865 1217.5,346.199 1220.5,331.5C 1217.5,331.5 1214.5,331.5 1211.5,331.5C 1211.33,330.508 1211.66,329.842 1212.5,329.5C 1215.29,330.477 1218.29,330.81 1221.5,330.5C 1221.5,329.167 1221.5,327.833 1221.5,326.5C 1222.36,324.579 1223.03,322.579 1223.5,320.5C 1223.41,319.504 1223.75,318.671 1224.5,318C 1233.36,310.801 1241.86,303.301 1250,295.5C 1256.72,299.783 1263.89,302.783 1271.5,304.5 Z"/></g>
<g><path style="opacity:1" fill="#274af2" d="M 1459.5,294.5 C 1478.19,298.503 1496.86,302.503 1515.5,306.5C 1515.17,307.833 1514.83,309.167 1514.5,310.5C 1495.92,306.69 1477.59,302.356 1459.5,297.5C 1459.5,296.5 1459.5,295.5 1459.5,294.5 Z"/></g>
<g><path style="opacity:1" fill="#3b3d3f" d="M 1515.5,300.5 C 1516.5,300.5 1517.5,300.5 1518.5,300.5C 1518.5,301.833 1518.5,303.167 1518.5,304.5C 1517.21,304.737 1516.21,304.404 1515.5,303.5C 1515.5,302.5 1515.5,301.5 1515.5,300.5 Z"/></g>
<g><path style="opacity:1" fill="#2349f3" d="M 1459.5,301.5 C 1477.55,305.296 1495.55,309.296 1513.5,313.5C 1512.83,314.5 1512.17,315.5 1511.5,316.5C 1493.99,312.788 1476.66,308.788 1459.5,304.5C 1459.5,303.5 1459.5,302.5 1459.5,301.5 Z"/></g>
<g><path style="opacity:1" fill="#caedf9" d="M 1271.5,304.5 C 1274.26,305.512 1276.92,306.512 1279.5,307.5C 1275.83,307.5 1272.17,307.5 1268.5,307.5C 1268.5,306.5 1268.5,305.5 1268.5,304.5C 1269.5,304.5 1270.5,304.5 1271.5,304.5 Z"/></g>
<g><path style="opacity:1" fill="#030303" d="M 1384.5,308.5 C 1392.8,309.371 1401.13,309.705 1409.5,309.5C 1437.27,314.443 1455.11,330.443 1463,357.5C 1464.47,424.809 1464.97,492.142 1464.5,559.5C 1464.67,637.834 1464.5,716.167 1464,794.5C 1459.53,823.302 1443.36,841.802 1415.5,850C 1407.53,850.928 1399.53,851.428 1391.5,851.5C 1371.84,850.708 1352.17,850.374 1332.5,850.5C 1332.5,849.5 1332.5,848.5 1332.5,847.5C 1347.84,847.667 1363.17,847.5 1378.5,847C 1410.74,844.298 1430.24,827.131 1437,795.5C 1437.67,650.167 1437.67,504.833 1437,359.5C 1429.19,330.345 1410.35,314.178 1380.5,311C 1366.5,310.5 1352.5,310.333 1338.5,310.5C 1338.92,309.778 1339.58,309.278 1340.5,309C 1355.16,308.5 1369.83,308.333 1384.5,308.5 Z"/></g>
<g><path style="opacity:1" fill="#141318" d="M 1515.5,306.5 C 1517.38,307.659 1517.88,309.326 1517,311.5C 1516.33,310.748 1515.5,310.414 1514.5,310.5C 1514.83,309.167 1515.17,307.833 1515.5,306.5 Z"/></g>
<g><path style="opacity:1" fill="#0b080b" d="M 702.5,308.5 C 861.167,308.333 1019.83,308.5 1178.5,309C 1177.96,309.717 1177.29,310.217 1176.5,310.5C 1019.67,310.167 862.999,310.5 706.5,311.5C 685.459,313.101 669.292,322.767 658,340.5C 653.433,347.814 650.933,355.814 650.5,364.5C 649.502,397.329 649.168,430.329 649.5,463.5C 648.508,463.672 647.842,463.338 647.5,462.5C 647.5,429.167 647.5,395.833 647.5,362.5C 648.222,358.494 649.055,354.494 650,350.5C 659.213,326.143 676.713,312.143 702.5,308.5 Z"/></g>
<g><path style="opacity:1" fill="#05060a" d="M 1282.5,308.5 C 1285.5,308.294 1288.16,308.96 1290.5,310.5C 1282.83,310.5 1275.17,310.5 1267.5,310.5C 1272.06,308.558 1277.06,307.892 1282.5,308.5 Z"/></g>
<g><path style="opacity:1" fill="#ebedeb" d="M 706.5,311.5 C 862.999,310.5 1019.67,310.167 1176.5,310.5C 1175.49,311.872 1174.49,313.205 1173.5,314.5C 1173.2,313.85 1172.86,313.183 1172.5,312.5C 1017.17,311.5 861.835,311.167 706.5,311.5 Z"/></g>
<g><path style="opacity:1" fill="#fdfdfd" d="M 706.5,311.5 C 861.835,311.167 1017.17,311.5 1172.5,312.5C 1172.86,313.183 1173.2,313.85 1173.5,314.5C 1170.63,318.909 1167.3,322.909 1163.5,326.5C 1008.14,326.01 852.808,326.51 697.5,328C 680.14,334.353 669.64,346.52 666,364.5C 665.5,397.832 665.333,431.165 665.5,464.5C 664.167,464.5 662.833,464.5 661.5,464.5C 658.038,463.518 654.371,463.185 650.5,463.5C 650.5,430.5 650.5,397.5 650.5,364.5C 650.933,355.814 653.433,347.814 658,340.5C 669.292,322.767 685.459,313.101 706.5,311.5 Z"/></g>
<g><path style="opacity:1" fill="#fdfdfd" d="M 1267.5,310.5 C 1275.17,310.5 1282.83,310.5 1290.5,310.5C 1300.69,311.269 1310.85,312.269 1321,313.5C 1326.94,313.057 1332.77,312.057 1338.5,310.5C 1352.5,310.333 1366.5,310.5 1380.5,311C 1410.35,314.178 1429.19,330.345 1437,359.5C 1437.67,504.833 1437.67,650.167 1437,795.5C 1430.24,827.131 1410.74,844.298 1378.5,847C 1363.17,847.5 1347.84,847.667 1332.5,847.5C 1332.82,841.642 1332.49,835.975 1331.5,830.5C 1331.15,822.376 1329.98,814.376 1328,806.5C 1325.41,797.673 1322.57,789.007 1319.5,780.5C 1343.21,780.949 1366.88,780.449 1390.5,779C 1408.21,772.618 1418.71,760.118 1422,741.5C 1422.67,616.5 1422.67,491.5 1422,366.5C 1419.09,346.923 1408.25,334.09 1389.5,328C 1346.87,326.533 1304.2,326.033 1261.5,326.5C 1263.21,320.979 1265.21,315.646 1267.5,310.5 Z"/></g>
<g><path style="opacity:1" fill="#171720" d="M 1513.5,313.5 C 1515.35,313.272 1516.19,313.939 1516,315.5C 1514.64,316.38 1513.14,316.714 1511.5,316.5C 1512.17,315.5 1512.83,314.5 1513.5,313.5 Z"/></g>
<g><path style="opacity:1" fill="#0e44f1" d="M 1459.5,308.5 C 1475.83,311.833 1492.17,315.167 1508.5,318.5C 1506.71,320.797 1504.71,322.963 1502.5,325C 1493.15,325.421 1483.82,325.088 1474.5,324C 1471.63,323.869 1469.3,322.703 1467.5,320.5C 1464.39,316.736 1461.72,312.736 1459.5,308.5 Z"/></g>
<g><path style="opacity:1" fill="#f1f5f5" d="M 1223.5,320.5 C 1223.03,322.579 1222.36,324.579 1221.5,326.5C 1219.83,326.5 1218.17,326.5 1216.5,326.5C 1218.68,324.255 1221.01,322.255 1223.5,320.5 Z"/></g>
<g><path style="opacity:1" fill="#111113" d="M 1163.5,326.5 C 1163.27,328.062 1162.6,329.395 1161.5,330.5C 1159.83,330.5 1158.17,330.5 1156.5,330.5C 1005,330.167 853.666,330.5 702.5,331.5C 678.731,338 667.397,353.667 668.5,378.5C 847.666,379.5 1027,379.833 1206.5,379.5C 1206.5,380.5 1206.5,381.5 1206.5,382.5C 1027.17,382.5 847.833,382.5 668.5,382.5C 668.5,409.833 668.5,437.167 668.5,464.5C 667.5,464.5 666.5,464.5 665.5,464.5C 665.333,431.165 665.5,397.832 666,364.5C 669.64,346.52 680.14,334.353 697.5,328C 852.808,326.51 1008.14,326.01 1163.5,326.5 Z"/></g>
<g><path style="opacity:1" fill="#07070a" d="M 1216.5,326.5 C 1218.17,326.5 1219.83,326.5 1221.5,326.5C 1221.5,327.833 1221.5,329.167 1221.5,330.5C 1218.29,330.81 1215.29,330.477 1212.5,329.5C 1213.83,328.5 1215.17,327.5 1216.5,326.5 Z"/></g>
<g><path style="opacity:1" fill="#0e0c14" d="M 1459.5,308.5 C 1461.72,312.736 1464.39,316.736 1467.5,320.5C 1469.3,322.703 1471.63,323.869 1474.5,324C 1483.82,325.088 1493.15,325.421 1502.5,325C 1504.71,322.963 1506.71,320.797 1508.5,318.5C 1509.77,319.09 1511.1,319.59 1512.5,320C 1507.68,324.834 1502.35,328.834 1496.5,332C 1489.12,332.747 1481.79,332.414 1474.5,331C 1472.7,329.738 1471.36,328.071 1470.5,326C 1467.8,325.31 1465.64,323.81 1464,321.5C 1462.06,317.89 1459.72,314.557 1457,311.5C 1456.14,308.457 1456.97,307.457 1459.5,308.5 Z"/></g>
<g><path style="opacity:1" fill="#0a3edb" d="M 1474.5,327.5 C 1474.56,326.957 1474.89,326.624 1475.5,326.5C 1482.15,327.257 1488.82,328.09 1495.5,329C 1494.74,329.944 1493.74,330.444 1492.5,330.5C 1486.32,330.108 1480.32,329.108 1474.5,327.5 Z"/></g>
<g><path style="opacity:1" fill="#0844f3" d="M 1292.5,331.5 C 1323.5,331.5 1354.5,331.5 1385.5,331.5C 1403.48,335.483 1414.48,346.483 1418.5,364.5C 1418.5,369.167 1418.5,373.833 1418.5,378.5C 1381.17,378.5 1343.83,378.5 1306.5,378.5C 1301.69,362.945 1297.02,347.278 1292.5,331.5 Z"/></g>
<g><path style="opacity:1" fill="#1e84f7" d="M 713.5,331.5 C 756.5,331.5 799.5,331.5 842.5,331.5C 847.443,347.062 852.11,362.728 856.5,378.5C 813.5,378.5 770.5,378.5 727.5,378.5C 722.825,362.812 718.159,347.145 713.5,331.5 Z"/></g>
<g><path style="opacity:1" fill="#1f84f7" d="M 876.5,331.5 C 889.5,331.5 902.5,331.5 915.5,331.5C 919.312,345.396 923.812,359.062 929,372.5C 929.495,374.473 929.662,376.473 929.5,378.5C 916.5,378.5 903.5,378.5 890.5,378.5C 886.296,362.683 881.63,347.017 876.5,331.5 Z"/></g>
<g><path style="opacity:1" fill="#1f83f7" d="M 1292.5,331.5 C 1297.02,347.278 1301.69,362.945 1306.5,378.5C 1293.5,378.5 1280.5,378.5 1267.5,378.5C 1264.41,366.555 1260.74,354.888 1256.5,343.5C 1257.5,339.5 1258.5,335.5 1259.5,331.5C 1270.5,331.5 1281.5,331.5 1292.5,331.5 Z"/></g>
<g><path style="opacity:1" fill="#0844f3" d="M 702.5,331.5 C 706.167,331.5 709.833,331.5 713.5,331.5C 718.159,347.145 722.825,362.812 727.5,378.5C 707.833,378.5 688.167,378.5 668.5,378.5C 667.397,353.667 678.731,338 702.5,331.5 Z"/></g>
<g><path style="opacity:1" fill="#0844f4" d="M 842.5,331.5 C 853.833,331.5 865.167,331.5 876.5,331.5C 881.63,347.017 886.296,362.683 890.5,378.5C 879.167,378.5 867.833,378.5 856.5,378.5C 852.11,362.728 847.443,347.062 842.5,331.5 Z"/></g>
<g><path style="opacity:1" fill="#0844f4" d="M 915.5,331.5 C 973.501,331.333 1031.5,331.5 1089.5,332C 1095.47,347.084 1100.14,362.584 1103.5,378.5C 1045.5,378.5 987.5,378.5 929.5,378.5C 929.662,376.473 929.495,374.473 929,372.5C 923.812,359.062 919.312,345.396 915.5,331.5 Z"/></g>
<g><path style="opacity:1" fill="#1c75e0" d="M 702.5,331.5 C 853.666,330.5 1005,330.167 1156.5,330.5C 1155.23,333.003 1155.57,335.337 1157.5,337.5C 1156.83,338.5 1156.17,339.5 1155.5,340.5C 1153.31,341.562 1150.98,342.228 1148.5,342.5C 1144.6,341.191 1140.6,340.191 1136.5,339.5C 1133.23,339.179 1131.73,340.513 1132,343.5C 1139.58,349.039 1147.41,354.206 1155.5,359C 1158.15,359.497 1160.81,359.664 1163.5,359.5C 1163.34,361.199 1163.51,362.866 1164,364.5C 1167.36,367.805 1171.19,369.138 1175.5,368.5C 1177.06,366.057 1177.72,363.39 1177.5,360.5C 1178.34,360.158 1178.67,359.492 1178.5,358.5C 1178.5,357.833 1178.83,357.5 1179.5,357.5C 1180.4,356.71 1181.07,355.71 1181.5,354.5C 1183.72,356.779 1186.39,357.612 1189.5,357C 1190.75,355.172 1190.75,353.339 1189.5,351.5C 1193.02,347.483 1196.68,343.649 1200.5,340C 1204.67,337.61 1208.33,334.777 1211.5,331.5C 1214.5,331.5 1217.5,331.5 1220.5,331.5C 1217.5,346.199 1214.5,360.865 1211.5,375.5C 1208.41,375.197 1206.75,376.53 1206.5,379.5C 1027,379.833 847.666,379.5 668.5,378.5C 688.167,378.5 707.833,378.5 727.5,378.5C 770.5,378.5 813.5,378.5 856.5,378.5C 867.833,378.5 879.167,378.5 890.5,378.5C 903.5,378.5 916.5,378.5 929.5,378.5C 987.5,378.5 1045.5,378.5 1103.5,378.5C 1100.14,362.584 1095.47,347.084 1089.5,332C 1031.5,331.5 973.501,331.333 915.5,331.5C 902.5,331.5 889.5,331.5 876.5,331.5C 865.167,331.5 853.833,331.5 842.5,331.5C 799.5,331.5 756.5,331.5 713.5,331.5C 709.833,331.5 706.167,331.5 702.5,331.5 Z"/></g>
<g><path style="opacity:1" fill="#14375c" d="M 1155.5,340.5 C 1158.51,344.005 1161.18,347.838 1163.5,352C 1169,353.653 1174.34,355.487 1179.5,357.5C 1178.83,357.5 1178.5,357.833 1178.5,358.5C 1176.53,358.739 1174.7,358.406 1173,357.5C 1173.32,359.773 1174.82,360.773 1177.5,360.5C 1177.72,363.39 1177.06,366.057 1175.5,368.5C 1171.19,369.138 1167.36,367.805 1164,364.5C 1163.51,362.866 1163.34,361.199 1163.5,359.5C 1160.81,359.664 1158.15,359.497 1155.5,359C 1147.41,354.206 1139.58,349.039 1132,343.5C 1131.73,340.513 1133.23,339.179 1136.5,339.5C 1140.6,340.191 1144.6,341.191 1148.5,342.5C 1150.98,342.228 1153.31,341.562 1155.5,340.5 Z"/></g>
<g><path style="opacity:1" fill="#14375b" d="M 616.5,392.5 C 611.448,392.55 606.448,392.05 601.5,391C 591.72,387.129 581.72,383.962 571.5,381.5C 567.068,381.713 563.068,383.046 559.5,385.5C 558.621,389.154 557.787,392.821 557,396.5C 555.333,395.167 553.667,395.167 552,396.5C 550.432,401.616 551.932,405.45 556.5,408C 554.779,413.841 553.112,419.674 551.5,425.5C 550.675,423.64 549.675,421.974 548.5,420.5C 545.891,413.835 543.391,407.169 541,400.5C 536.608,383.437 540.441,368.604 552.5,356C 557.317,352.295 562.65,351.128 568.5,352.5C 579.988,343.733 592.655,341.566 606.5,346C 615.096,349.864 623.763,353.531 632.5,357C 635.167,357.667 637.833,357.667 640.5,357C 642.055,355.711 643.721,355.044 645.5,355C 644.128,360.184 642.628,365.351 641,370.5C 636.677,382.333 628.51,389.667 616.5,392.5 Z"/></g>
<g><path style="opacity:1" fill="#eedbb1" d="M 1157.5,337.5 C 1165.89,342.688 1173.89,348.354 1181.5,354.5C 1181.07,355.71 1180.4,356.71 1179.5,357.5C 1174.34,355.487 1169,353.653 1163.5,352C 1161.18,347.838 1158.51,344.005 1155.5,340.5C 1156.17,339.5 1156.83,338.5 1157.5,337.5 Z"/></g>
<g><path style="opacity:1" fill="#164531" d="M 1156.5,330.5 C 1158.17,330.5 1159.83,330.5 1161.5,330.5C 1170.24,338.238 1179.58,345.238 1189.5,351.5C 1190.75,353.339 1190.75,355.172 1189.5,357C 1186.39,357.612 1183.72,356.779 1181.5,354.5C 1173.89,348.354 1165.89,342.688 1157.5,337.5C 1155.57,335.337 1155.23,333.003 1156.5,330.5 Z"/></g>
<g><path style="opacity:1" fill="#101115" d="M 759.5,343.5 C 770.442,344.944 774.276,350.944 771,361.5C 763.497,368.713 756.83,368.046 751,359.5C 749.428,351.635 752.262,346.302 759.5,343.5 Z"/></g>
<g><path style="opacity:1" fill="#f7f7f7" d="M 757.5,347.5 C 764.573,345.864 768.906,348.531 770.5,355.5C 767.302,363.511 762.135,365.178 755,360.5C 752.458,355.438 753.292,351.105 757.5,347.5 Z"/></g>
<g><path style="opacity:1" fill="#0f1016" d="M 807.5,343.5 C 819.085,344.447 822.919,350.447 819,361.5C 811.437,368.703 804.77,368.036 799,359.5C 797.428,351.635 800.262,346.302 807.5,343.5 Z"/></g>
<g><path style="opacity:1" fill="#f5f5f5" d="M 805.5,347.5 C 812.615,345.882 816.948,348.549 818.5,355.5C 817.225,360.778 813.892,363.444 808.5,363.5C 802.467,361.777 800.301,357.777 802,351.5C 803.376,350.295 804.542,348.962 805.5,347.5 Z"/></g>
<g><path style="opacity:1" fill="#979a96" d="M 1178.5,358.5 C 1178.67,359.492 1178.34,360.158 1177.5,360.5C 1174.82,360.773 1173.32,359.773 1173,357.5C 1174.7,358.406 1176.53,358.739 1178.5,358.5 Z"/></g>
<g><path style="opacity:1" fill="#0944f3" d="M 1256.5,343.5 C 1260.74,354.888 1264.41,366.555 1267.5,378.5C 1261.17,378.5 1254.83,378.5 1248.5,378.5C 1247.73,377.306 1246.73,376.306 1245.5,375.5C 1248.4,364.46 1252.07,353.793 1256.5,343.5 Z"/></g>
<g><path style="opacity:1" fill="#c5c5c7" d="M 650.5,364.5 C 650.5,397.5 650.5,430.5 650.5,463.5C 654.371,463.185 658.038,463.518 661.5,464.5C 657.5,464.5 653.5,464.5 649.5,464.5C 649.5,464.167 649.5,463.833 649.5,463.5C 649.168,430.329 649.502,397.329 650.5,364.5 Z"/></g>
<g><path style="opacity:1" fill="#0c287f" d="M 1418.5,364.5 C 1419.49,369.305 1419.82,374.305 1419.5,379.5C 1362.5,379.5 1305.5,379.5 1248.5,379.5C 1248.5,379.167 1248.5,378.833 1248.5,378.5C 1254.83,378.5 1261.17,378.5 1267.5,378.5C 1280.5,378.5 1293.5,378.5 1306.5,378.5C 1343.83,378.5 1381.17,378.5 1418.5,378.5C 1418.5,373.833 1418.5,369.167 1418.5,364.5 Z"/></g>
<g><path style="opacity:1" fill="#134330" d="M 1211.5,375.5 C 1222.83,375.5 1234.17,375.5 1245.5,375.5C 1246.73,376.306 1247.73,377.306 1248.5,378.5C 1248.5,378.833 1248.5,379.167 1248.5,379.5C 1247.89,380.391 1247.56,381.391 1247.5,382.5C 1245.5,382.5 1243.5,382.5 1241.5,382.5C 1231.83,382.5 1222.17,382.5 1212.5,382.5C 1210.5,382.5 1208.5,382.5 1206.5,382.5C 1206.5,381.5 1206.5,380.5 1206.5,379.5C 1206.75,376.53 1208.41,375.197 1211.5,375.5 Z"/></g>
<g><path style="opacity:1" fill="#839fad" d="M 647.5,362.5 C 647.5,395.833 647.5,429.167 647.5,462.5C 646.508,462.672 645.842,462.338 645.5,461.5C 646.167,428.5 646.833,395.5 647.5,362.5 Z"/></g>
<g><path style="opacity:1" fill="#141416" d="M 1261.5,326.5 C 1304.2,326.033 1346.87,326.533 1389.5,328C 1408.25,334.09 1419.09,346.923 1422,366.5C 1422.67,491.5 1422.67,616.5 1422,741.5C 1418.71,760.118 1408.21,772.618 1390.5,779C 1366.88,780.449 1343.21,780.949 1319.5,780.5C 1302.5,780.5 1285.5,780.5 1268.5,780.5C 1222.17,780.5 1175.83,780.5 1129.5,780.5C 1061.83,780.5 994.167,780.5 926.5,780.5C 868.167,780.5 809.833,780.5 751.5,780.5C 736.833,780.5 722.167,780.5 707.5,780.5C 704.482,780.296 701.482,779.963 698.5,779.5C 686.136,775.465 676.803,767.798 670.5,756.5C 669.575,752.21 668.909,747.876 668.5,743.5C 673.672,762.004 685.672,773.337 704.5,777.5C 845.5,777.5 986.5,777.5 1127.5,777.5C 1162.17,777.5 1196.83,777.5 1231.5,777.5C 1275.17,777.5 1318.83,777.5 1362.5,777.5C 1370.84,777.666 1379.17,777.5 1387.5,777C 1390.31,775.907 1392.98,774.74 1395.5,773.5C 1408.31,767.509 1416.15,757.509 1419,743.5C 1419.83,622.999 1419.67,502.666 1418.5,382.5C 1382.5,382.5 1346.5,382.5 1310.5,382.5C 1289.5,382.5 1268.5,382.5 1247.5,382.5C 1247.56,381.391 1247.89,380.391 1248.5,379.5C 1305.5,379.5 1362.5,379.5 1419.5,379.5C 1419.82,374.305 1419.49,369.305 1418.5,364.5C 1414.48,346.483 1403.48,335.483 1385.5,331.5C 1344,330.501 1302.34,330.168 1260.5,330.5C 1260.43,329.041 1260.77,327.708 1261.5,326.5 Z"/></g>
<g><path style="opacity:1" fill="#f9dfb2" d="M 616.5,392.5 C 617.734,394.201 618.401,396.201 618.5,398.5C 617.89,402.486 617.39,406.486 617,410.5C 615.175,429.826 604.675,440.16 585.5,441.5C 578.921,440.665 572.254,439.498 565.5,438C 561.045,435.709 557.378,432.542 554.5,428.5C 554.322,431.855 555.155,435.188 557,438.5C 560.158,442.507 563.992,445.507 568.5,447.5C 562.805,448.048 557.138,448.714 551.5,449.5C 550.961,439.778 549.961,430.111 548.5,420.5C 549.675,421.974 550.675,423.64 551.5,425.5C 553.112,419.674 554.779,413.841 556.5,408C 551.932,405.45 550.432,401.616 552,396.5C 553.667,395.167 555.333,395.167 557,396.5C 557.787,392.821 558.621,389.154 559.5,385.5C 563.068,383.046 567.068,381.713 571.5,381.5C 581.72,383.962 591.72,387.129 601.5,391C 606.448,392.05 611.448,392.55 616.5,392.5 Z"/></g>
<g><path style="opacity:1" fill="#def1fe" d="M 1206.5,382.5 C 1208.5,382.5 1210.5,382.5 1212.5,382.5C 1211.89,383.391 1211.56,384.391 1211.5,385.5C 1210.97,387.583 1209.97,389.417 1208.5,391C 1204.64,392.754 1200.64,394.088 1196.5,395C 1194.08,396.571 1192.74,398.737 1192.5,401.5C 1203.51,401.667 1214.51,401.5 1225.5,401C 1227.35,397.876 1229.01,397.876 1230.5,401C 1234.15,401.499 1237.82,401.665 1241.5,401.5C 1282.26,526.764 1322.59,652.097 1362.5,777.5C 1318.83,777.5 1275.17,777.5 1231.5,777.5C 1231.66,775.143 1231.5,772.81 1231,770.5C 1225.36,753.566 1220.03,736.566 1215,719.5C 1213.1,713.176 1210.6,707.176 1207.5,701.5C 1228.17,701.667 1248.84,701.5 1269.5,701C 1276.7,699.791 1281.2,695.624 1283,688.5C 1283.67,679.833 1283.67,671.167 1283,662.5C 1281.66,656.499 1278.16,652.332 1272.5,650C 1128.17,649.333 983.833,649.333 839.5,650C 833.922,651.978 830.255,655.811 828.5,661.5C 827.67,669.99 827.17,678.657 827,687.5C 794.085,586.076 761.585,484.742 729.5,383.5C 709.5,383.5 689.5,383.5 669.5,383.5C 669.5,410.5 669.5,437.5 669.5,464.5C 669.167,464.5 668.833,464.5 668.5,464.5C 668.5,437.167 668.5,409.833 668.5,382.5C 847.833,382.5 1027.17,382.5 1206.5,382.5 Z"/></g>
<g><path style="opacity:1" fill="#dbeefb" d="M 1241.5,382.5 C 1243.5,382.5 1245.5,382.5 1247.5,382.5C 1268.5,382.5 1289.5,382.5 1310.5,382.5C 1310.5,382.833 1310.5,383.167 1310.5,383.5C 1309.88,383.917 1309.54,384.584 1309.5,385.5C 1345.17,496.798 1381.17,608.132 1417.5,719.5C 1418.5,609.195 1418.83,496.862 1418.5,382.5C 1419.67,502.666 1419.83,622.999 1419,743.5C 1416.15,757.509 1408.31,767.509 1395.5,773.5C 1375.85,714.155 1356.69,654.488 1338,594.5C 1314.4,524.423 1291.9,454.09 1270.5,383.5C 1262.16,383.334 1253.83,383.5 1245.5,384C 1244.75,385.487 1243.91,385.654 1243,384.5C 1242.87,387.063 1242.71,389.396 1242.5,391.5C 1237.7,391.874 1237.04,391.208 1240.5,389.5C 1241.78,388.386 1241.78,387.386 1240.5,386.5C 1241.23,385.292 1241.57,383.959 1241.5,382.5 Z"/></g>
<g><path style="opacity:1" fill="#c1e5fe" d="M 1310.5,383.5 C 1346.17,383.5 1381.83,383.5 1417.5,383.5C 1417.5,495.5 1417.5,607.5 1417.5,719.5C 1381.17,608.132 1345.17,496.798 1309.5,385.5C 1309.54,384.584 1309.88,383.917 1310.5,383.5 Z"/></g>
<g><path style="opacity:1" fill="#d2f7fd" d="M 1310.5,383.5 C 1310.5,383.167 1310.5,382.833 1310.5,382.5C 1346.5,382.5 1382.5,382.5 1418.5,382.5C 1418.83,496.862 1418.5,609.195 1417.5,719.5C 1417.5,607.5 1417.5,495.5 1417.5,383.5C 1381.83,383.5 1346.17,383.5 1310.5,383.5 Z"/></g>
<g><path style="opacity:1" fill="#c2e5fe" d="M 828.5,661.5 C 828.334,671.172 828.5,680.839 829,690.5C 829.513,691.527 830.013,692.527 830.5,693.5C 831.921,702.955 834.754,712.289 839,721.5C 844.645,739.738 850.145,758.072 855.5,776.5C 806.317,776.564 757.317,776.231 708.5,775.5C 706.974,775.994 705.641,776.661 704.5,777.5C 685.672,773.337 673.672,762.004 668.5,743.5C 668.5,741.833 668.5,740.167 668.5,738.5C 668.5,675.833 668.5,613.167 668.5,550.5C 676.488,551.333 684.488,551.499 692.5,551C 693.333,550.167 694.167,549.333 695,548.5C 695.325,541.476 695.825,534.476 696.5,527.5C 695.209,527.737 694.209,527.404 693.5,526.5C 697.163,527.112 700.83,527.279 704.5,527C 705.24,525.215 705.907,523.382 706.5,521.5C 706.531,516.672 706.365,511.672 706,506.5C 704.784,504.038 704.118,501.371 704,498.5C 702.044,498.784 699.877,498.784 697.5,498.5C 697.439,488.455 697.605,478.455 698,468.5C 697.097,467.299 695.931,466.465 694.5,466C 686.174,465.31 677.841,464.81 669.5,464.5C 669.5,437.5 669.5,410.5 669.5,383.5C 689.5,383.5 709.5,383.5 729.5,383.5C 761.585,484.742 794.085,586.076 827,687.5C 827.17,678.657 827.67,669.99 828.5,661.5 Z"/></g>
<g><path style="opacity:1" fill="#c2e6fe" d="M 955.5,578.5 C 944.167,578.5 932.833,578.5 921.5,578.5C 900.663,513.46 879.996,448.46 859.5,383.5C 870.833,383.5 882.167,383.5 893.5,383.5C 904.526,420.522 916.359,457.188 929,493.5C 937.863,521.875 946.696,550.209 955.5,578.5 Z"/></g>
<g><path style="opacity:1" fill="#f0dcb0" d="M 1212.5,382.5 C 1222.17,382.5 1231.83,382.5 1241.5,382.5C 1241.57,383.959 1241.23,385.292 1240.5,386.5C 1235.38,387.896 1230.38,389.563 1225.5,391.5C 1220.81,389.488 1216.15,387.488 1211.5,385.5C 1211.56,384.391 1211.89,383.391 1212.5,382.5 Z"/></g>
<g><path style="opacity:1" fill="#c2e5fe" d="M 1395.5,773.5 C 1392.98,774.74 1390.31,775.907 1387.5,777C 1379.17,777.5 1370.84,777.666 1362.5,777.5C 1322.59,652.097 1282.26,526.764 1241.5,401.5C 1242.12,401.389 1242.62,401.056 1243,400.5C 1243.74,397.408 1243.57,394.408 1242.5,391.5C 1242.71,389.396 1242.87,387.063 1243,384.5C 1243.91,385.654 1244.75,385.487 1245.5,384C 1253.83,383.5 1262.16,383.334 1270.5,383.5C 1291.9,454.09 1314.4,524.423 1338,594.5C 1356.69,654.488 1375.85,714.155 1395.5,773.5 Z"/></g>
<g><path style="opacity:1" fill="#18395c" d="M 1211.5,385.5 C 1216.15,387.488 1220.81,389.488 1225.5,391.5C 1230.38,389.563 1235.38,387.896 1240.5,386.5C 1241.78,387.386 1241.78,388.386 1240.5,389.5C 1237.04,391.208 1237.7,391.874 1242.5,391.5C 1243.57,394.408 1243.74,397.408 1243,400.5C 1242.62,401.056 1242.12,401.389 1241.5,401.5C 1237.82,401.665 1234.15,401.499 1230.5,401C 1229.01,397.876 1227.35,397.876 1225.5,401C 1214.51,401.5 1203.51,401.667 1192.5,401.5C 1192.74,398.737 1194.08,396.571 1196.5,395C 1200.64,394.088 1204.64,392.754 1208.5,391C 1209.97,389.417 1210.97,387.583 1211.5,385.5 Z"/></g>
<g><path style="opacity:1" fill="#f38661" d="M 585.5,441.5 C 585.371,443.216 585.038,444.883 584.5,446.5C 579.13,446.392 573.797,446.725 568.5,447.5C 563.992,445.507 560.158,442.507 557,438.5C 555.155,435.188 554.322,431.855 554.5,428.5C 557.378,432.542 561.045,435.709 565.5,438C 572.254,439.498 578.921,440.665 585.5,441.5 Z"/></g>
<g><path style="opacity:1" fill="#134280" d="M 584.5,446.5 C 591.831,447.285 599.164,448.118 606.5,449C 612.085,450.806 617.751,452.306 623.5,453.5C 627.874,457.872 631.874,462.539 635.5,467.5C 635.026,484.23 634.026,500.896 632.5,517.5C 629.833,520.5 627.167,523.5 624.5,526.5C 623.167,527.167 621.833,527.833 620.5,528.5C 605.537,528.455 591.204,525.622 577.5,520C 576.789,518.745 575.956,517.579 575,516.5C 572.482,501.664 570.482,486.664 569,471.5C 565.712,463.946 560.212,458.779 552.5,456C 547.26,455.648 542.26,455.481 537.5,455.5C 541.663,452.421 546.329,450.421 551.5,449.5C 557.138,448.714 562.805,448.048 568.5,447.5C 573.797,446.725 579.13,446.392 584.5,446.5 Z"/></g>
<g><path style="opacity:1" fill="#416798" d="M 537.5,455.5 C 542.26,455.481 547.26,455.648 552.5,456C 560.212,458.779 565.712,463.946 569,471.5C 570.482,486.664 572.482,501.664 575,516.5C 575.956,517.579 576.789,518.745 577.5,520C 591.204,525.622 605.537,528.455 620.5,528.5C 621.834,536.176 623.168,543.842 624.5,551.5C 603.509,560.143 581.843,561.643 559.5,556C 547.001,550.837 538.168,542.004 533,529.5C 527.312,514.537 523.478,499.204 521.5,483.5C 521.336,480.813 521.503,478.146 522,475.5C 524.356,466.646 529.522,459.979 537.5,455.5 Z"/></g>
<g><path style="opacity:1" fill="#466a9b" d="M 623.5,453.5 C 631.21,455.256 638.543,457.923 645.5,461.5C 645.842,462.338 646.508,462.672 647.5,462.5C 647.842,463.338 648.508,463.672 649.5,463.5C 649.5,463.833 649.5,464.167 649.5,464.5C 646.5,464.5 643.5,464.5 640.5,464.5C 638.067,464.273 636.401,465.273 635.5,467.5C 631.874,462.539 627.874,457.872 623.5,453.5 Z"/></g>
<g><path style="opacity:1" fill="#96a3cd" d="M 640.5,464.5 C 643.5,464.5 646.5,464.5 649.5,464.5C 653.5,464.5 657.5,464.5 661.5,464.5C 662.833,464.5 664.167,464.5 665.5,464.5C 666.5,464.5 667.5,464.5 668.5,464.5C 668.833,464.5 669.167,464.5 669.5,464.5C 677.841,464.81 686.174,465.31 694.5,466C 695.931,466.465 697.097,467.299 698,468.5C 697.605,478.455 697.439,488.455 697.5,498.5C 695.5,498.5 693.5,498.5 691.5,498.5C 691.5,500.167 691.5,501.833 691.5,503.5C 691.5,503.833 691.5,504.167 691.5,504.5C 690.504,504.414 689.671,504.748 689,505.5C 688.116,508.935 686.949,512.268 685.5,515.5C 687.511,518.525 688.844,521.858 689.5,525.5C 690.736,526.246 692.07,526.579 693.5,526.5C 694.209,527.404 695.209,527.737 696.5,527.5C 695.825,534.476 695.325,541.476 695,548.5C 694.167,549.333 693.333,550.167 692.5,551C 684.488,551.499 676.488,551.333 668.5,550.5C 667.5,550.5 666.5,550.5 665.5,550.5C 662.833,550.5 660.167,550.5 657.5,550.5C 655.052,549.527 652.385,549.194 649.5,549.5C 648.833,549.5 648.167,549.5 647.5,549.5C 646.5,549.5 645.5,549.5 644.5,549.5C 644.5,551.167 644.5,552.833 644.5,554.5C 643.549,553.081 643.216,551.415 643.5,549.5C 645.343,548.717 647.343,548.05 649.5,547.5C 650.452,545.955 650.785,544.288 650.5,542.5C 651.833,542.5 653.167,542.5 654.5,542.5C 654.5,540.833 654.5,539.167 654.5,537.5C 656.385,535.205 656.885,532.538 656,529.5C 654.301,528.594 652.467,528.261 650.5,528.5C 649.766,527.292 649.433,525.959 649.5,524.5C 644.77,524.283 640.103,524.617 635.5,525.5C 636.972,506.56 637.805,487.56 638,468.5C 638.48,466.867 639.313,465.534 640.5,464.5 Z"/></g>
<g><path style="opacity:1" fill="#fafbf9" d="M 689.5,470.5 C 690.5,470.5 691.5,470.5 692.5,470.5C 692.5,471.833 692.5,473.167 692.5,474.5C 691.167,474.5 689.833,474.5 688.5,474.5C 688.433,473.041 688.766,471.708 689.5,470.5 Z"/></g>
<g><path style="opacity:1" fill="#c1e5fd" d="M 932.5,383.5 C 990.504,383.167 1048.5,383.5 1106.5,384.5C 1123.58,438.531 1141.08,492.198 1159,545.5C 1162.72,555.935 1165.55,566.602 1167.5,577.5C 1109.83,577.667 1052.17,577.5 994.5,577C 973.777,512.377 953.11,447.877 932.5,383.5 Z"/></g>
<g><path style="opacity:1" fill="#f6f7f9" d="M 664.5,501.5 C 669.39,500.887 672.056,503.054 672.5,508C 671.98,511.35 669.98,513.184 666.5,513.5C 663.102,512.608 661.435,510.442 661.5,507C 661.685,504.624 662.685,502.791 664.5,501.5 Z"/></g>
<g><path style="opacity:1" fill="#f48b64" d="M 691.5,503.5 C 695.2,503.921 698.867,504.588 702.5,505.5C 702,505.833 701.5,506.167 701,506.5C 697.676,505.95 694.509,505.283 691.5,504.5C 691.5,504.167 691.5,503.833 691.5,503.5 Z"/></g>
<g><path style="opacity:1" fill="#727fa8" d="M 640.5,464.5 C 639.313,465.534 638.48,466.867 638,468.5C 637.805,487.56 636.972,506.56 635.5,525.5C 634.833,525.5 634.167,525.5 633.5,525.5C 633.806,522.615 633.473,519.948 632.5,517.5C 634.026,500.896 635.026,484.23 635.5,467.5C 636.401,465.273 638.067,464.273 640.5,464.5 Z"/></g>
<g><path style="opacity:1" fill="#f28661" d="M 632.5,517.5 C 633.473,519.948 633.806,522.615 633.5,525.5C 630.609,526.403 627.609,526.736 624.5,526.5C 627.167,523.5 629.833,520.5 632.5,517.5 Z"/></g>
<g><path style="opacity:1" fill="#f8dfb3" d="M 697.5,498.5 C 699.877,498.784 702.044,498.784 704,498.5C 704.118,501.371 704.784,504.038 706,506.5C 706.365,511.672 706.531,516.672 706.5,521.5C 705.907,523.382 705.24,525.215 704.5,527C 700.83,527.279 697.163,527.112 693.5,526.5C 692.07,526.579 690.736,526.246 689.5,525.5C 688.844,521.858 687.511,518.525 685.5,515.5C 686.949,512.268 688.116,508.935 689,505.5C 689.671,504.748 690.504,504.414 691.5,504.5C 694.509,505.283 697.676,505.95 701,506.5C 701.5,506.167 702,505.833 702.5,505.5C 698.867,504.588 695.2,503.921 691.5,503.5C 691.5,501.833 691.5,500.167 691.5,498.5C 693.5,498.5 695.5,498.5 697.5,498.5 Z"/></g>
<g><path style="opacity:1" fill="#f9b189" d="M 689.5,511.5 C 694.434,510.092 699.434,510.259 704.5,512C 700.833,512.333 697.167,512.667 693.5,513C 694.167,513.333 694.833,513.667 695.5,514C 694.62,515.356 694.286,516.856 694.5,518.5C 697.572,518.183 700.572,518.516 703.5,519.5C 703.167,519.833 702.833,520.167 702.5,520.5C 698.18,519.888 693.847,519.222 689.5,518.5C 690.833,517.5 692.167,516.5 693.5,515.5C 692.39,513.8 691.057,512.466 689.5,511.5 Z"/></g>
<g><path style="opacity:1" fill="#0f0f14" d="M 1046.5,416.5 C 1086.52,414.248 1114.02,431.581 1129,468.5C 1138.08,505.628 1126.91,534.795 1095.5,556C 1073.15,567.13 1050.15,568.464 1026.5,560C 993.104,541.708 978.937,513.541 984,475.5C 992.758,442.905 1013.59,423.239 1046.5,416.5 Z"/></g>
<g><path style="opacity:1" fill="#fcfcfc" d="M 1043.5,510.5 C 1068.38,507.362 1087.88,516.029 1102,536.5C 1103.63,539.058 1104.63,541.725 1105,544.5C 1087.09,560.29 1066.26,566.124 1042.5,562C 1028.23,558.391 1015.9,551.391 1005.5,541C 1013.86,525.338 1026.53,515.171 1043.5,510.5 Z"/></g>
<g><path style="opacity:1" fill="#0843f1" d="M 1045.5,419.5 C 1078.58,416.625 1103.75,429.291 1121,457.5C 1135.35,488.282 1131.18,516.282 1108.5,541.5C 1090.84,511.013 1065.18,501.179 1031.5,512C 1019.05,517.619 1009.72,526.452 1003.5,538.5C 984.704,515.793 980.538,490.459 991,462.5C 1002.53,439.664 1020.69,425.33 1045.5,419.5 Z"/></g>
<g><path style="opacity:1" fill="#111017" d="M 1047.5,446.5 C 1072.65,444.824 1084.82,456.49 1084,481.5C 1080.84,493.991 1073.01,501.825 1060.5,505C 1039.75,505.956 1028.08,496.123 1025.5,475.5C 1026.78,461.22 1034.12,451.554 1047.5,446.5 Z"/></g>
<g><path style="opacity:1" fill="#fcfcfc" d="M 1049.5,449.5 C 1065.25,447.956 1075.75,454.623 1081,469.5C 1082.84,484.32 1077.01,494.82 1063.5,501C 1048.08,504.866 1036.92,499.7 1030,485.5C 1025.82,467.524 1032.32,455.524 1049.5,449.5 Z"/></g>
<g><path style="opacity:1" fill="#f8deb2" d="M 650.5,528.5 C 652.467,528.261 654.301,528.594 656,529.5C 656.885,532.538 656.385,535.205 654.5,537.5C 654.5,539.167 654.5,540.833 654.5,542.5C 653.167,542.5 651.833,542.5 650.5,542.5C 650.785,544.288 650.452,545.955 649.5,547.5C 647.343,548.05 645.343,548.717 643.5,549.5C 637.106,549.646 630.773,550.313 624.5,551.5C 623.168,543.842 621.834,536.176 620.5,528.5C 621.833,527.833 623.167,527.167 624.5,526.5C 627.609,526.736 630.609,526.403 633.5,525.5C 634.167,525.5 634.833,525.5 635.5,525.5C 640.103,524.617 644.77,524.283 649.5,524.5C 649.433,525.959 649.766,527.292 650.5,528.5 Z"/></g>
<g><path style="opacity:1" fill="#f4906e" d="M 650.5,528.5 C 650.03,529.693 649.03,530.36 647.5,530.5C 643.856,531.415 640.19,531.581 636.5,531C 641.122,529.844 645.789,529.01 650.5,528.5 Z"/></g>
<g><path style="opacity:1" fill="#f5916d" d="M 654.5,537.5 C 650.763,537.745 647.097,538.411 643.5,539.5C 642.5,539.167 641.5,538.833 640.5,538.5C 644.698,537.638 648.864,536.638 653,535.5C 654.03,535.836 654.53,536.503 654.5,537.5 Z"/></g>
<g><path style="opacity:1" fill="#f38963" d="M 642.5,542.5 C 644.857,542.337 647.19,542.503 649.5,543C 646.029,544.036 642.529,544.869 639,545.5C 638.833,545.167 638.667,544.833 638.5,544.5C 639.949,543.828 641.282,543.161 642.5,542.5 Z"/></g>
<g><path style="opacity:1" fill="#030306" d="M 647.5,549.5 C 648.167,549.5 648.833,549.5 649.5,549.5C 649.5,564.167 649.5,578.833 649.5,593.5C 649.167,593.5 648.833,593.5 648.5,593.5C 648.24,587.828 647.907,582.161 647.5,576.5C 647.5,567.5 647.5,558.5 647.5,549.5 Z"/></g>
<g><path style="opacity:1" fill="#fbfcfc" d="M 657.5,550.5 C 660.167,550.5 662.833,550.5 665.5,550.5C 665.5,605.167 665.5,659.833 665.5,714.5C 660.813,683.686 656.48,652.686 652.5,621.5C 651.108,615.252 650.442,608.918 650.5,602.5C 650.5,585.167 650.5,567.833 650.5,550.5C 652.833,550.5 655.167,550.5 657.5,550.5 Z"/></g>
<g><path style="opacity:1" fill="#c5c6c8" d="M 649.5,549.5 C 652.385,549.194 655.052,549.527 657.5,550.5C 655.167,550.5 652.833,550.5 650.5,550.5C 650.5,567.833 650.5,585.167 650.5,602.5C 650.167,602.5 649.833,602.5 649.5,602.5C 649.5,599.5 649.5,596.5 649.5,593.5C 649.5,578.833 649.5,564.167 649.5,549.5 Z"/></g>
<g><path style="opacity:1" fill="#1c1f20" d="M 665.5,550.5 C 666.5,550.5 667.5,550.5 668.5,550.5C 668.5,613.167 668.5,675.833 668.5,738.5C 666.669,730.746 665.669,722.746 665.5,714.5C 665.5,659.833 665.5,605.167 665.5,550.5 Z"/></g>
<g><path style="opacity:1" fill="#9bbaca" d="M 647.5,549.5 C 647.5,558.5 647.5,567.5 647.5,576.5C 645.851,569.392 644.851,562.059 644.5,554.5C 644.5,552.833 644.5,551.167 644.5,549.5C 645.5,549.5 646.5,549.5 647.5,549.5 Z"/></g>
<g><path style="opacity:1" fill="#c1e5fe" d="M 1464.5,559.5 C 1472.1,578.372 1481.1,596.705 1491.5,614.5C 1540.56,676.444 1555.39,746.111 1536,823.5C 1529.09,845.958 1520.59,867.624 1510.5,888.5C 1502.75,901.673 1494.75,914.673 1486.5,927.5C 1480.34,933.818 1475.17,940.818 1471,948.5C 1469.58,950.422 1467.75,951.755 1465.5,952.5C 1458.99,960.074 1452.66,967.74 1446.5,975.5C 1419.12,1001.96 1389.62,1025.96 1358,1047.5C 1328.55,1064.86 1298.38,1080.69 1267.5,1095C 1235.68,1107.15 1203.34,1117.81 1170.5,1127C 1082.84,1147.42 993.842,1159.25 903.5,1162.5C 843.613,1163.76 785.947,1153.76 730.5,1132.5C 761.635,1120.44 792.969,1108.61 824.5,1097C 822.866,1096.51 821.199,1096.34 819.5,1096.5C 819.5,1064.83 819.5,1033.17 819.5,1001.5C 855.541,1007.68 890.208,1003.35 923.5,988.5C 965.163,1027.51 1013.83,1040.01 1069.5,1026C 1096.99,1017.01 1120.49,1001.84 1140,980.5C 1201.11,997.454 1253.44,983.121 1297,937.5C 1322.5,906.545 1334,870.879 1331.5,830.5C 1332.49,835.975 1332.82,841.642 1332.5,847.5C 1332.5,848.5 1332.5,849.5 1332.5,850.5C 1352.17,850.374 1371.84,850.708 1391.5,851.5C 1399.53,851.428 1407.53,850.928 1415.5,850C 1443.36,841.802 1459.53,823.302 1464,794.5C 1464.5,716.167 1464.67,637.834 1464.5,559.5 Z"/></g>
<g><path style="opacity:1" fill="#2c4e80" d="M 648.5,593.5 C 648.833,593.5 649.167,593.5 649.5,593.5C 649.5,596.5 649.5,599.5 649.5,602.5C 649.923,605.243 648.756,606.576 646,606.5C 638.082,605.801 630.248,604.801 622.5,603.5C 620.919,601.858 620.253,599.858 620.5,597.5C 628.507,597.666 636.507,597.5 644.5,597C 646.027,595.968 647.36,594.801 648.5,593.5 Z"/></g>
<g><path style="opacity:1" fill="#406698" d="M 521.5,594.5 C 522.267,595.172 522.934,596.005 523.5,597C 532.518,597.168 541.518,597.668 550.5,598.5C 547.587,610.378 540.254,617.712 528.5,620.5C 528.628,626.7 528.295,633.033 527.5,639.5C 526.504,633.537 526.171,627.537 526.5,621.5C 524.833,621.5 523.167,621.5 521.5,621.5C 521.784,623.415 521.451,625.081 520.5,626.5C 521.345,615.857 521.679,605.19 521.5,594.5 Z"/></g>
<g><path style="opacity:1" fill="#134280" d="M 521.5,483.5 C 523.478,499.204 527.312,514.537 533,529.5C 538.168,542.004 547.001,550.837 559.5,556C 581.843,561.643 603.509,560.143 624.5,551.5C 630.773,550.313 637.106,549.646 643.5,549.5C 643.216,551.415 643.549,553.081 644.5,554.5C 644.851,562.059 645.851,569.392 647.5,576.5C 647.907,582.161 648.24,587.828 648.5,593.5C 647.36,594.801 646.027,595.968 644.5,597C 636.507,597.5 628.507,597.666 620.5,597.5C 620.253,599.858 620.919,601.858 622.5,603.5C 625.861,612.357 632.194,617.857 641.5,620C 642.047,620.925 642.713,621.758 643.5,622.5C 646.293,620.225 649.293,619.891 652.5,621.5C 656.48,652.686 660.813,683.686 665.5,714.5C 665.669,722.746 666.669,730.746 668.5,738.5C 668.5,740.167 668.5,741.833 668.5,743.5C 668.909,747.876 669.575,752.21 670.5,756.5C 674.312,784.475 677.979,812.475 681.5,840.5C 681.5,841.5 681.5,842.5 681.5,843.5C 682.299,846.43 682.632,849.43 682.5,852.5C 681.5,852.5 680.5,852.5 679.5,852.5C 678.739,851.609 677.739,850.942 676.5,850.5C 661.039,851.152 645.706,851.819 630.5,852.5C 627.52,852.759 625.687,851.426 625,848.5C 615.605,804.455 606.105,760.455 596.5,716.5C 598.505,677.667 599.672,638.667 600,599.5C 595.033,628.624 591.533,657.957 589.5,687.5C 582.775,742.134 576.108,796.801 569.5,851.5C 568.311,852.429 566.978,852.762 565.5,852.5C 550.765,851.826 535.931,851.159 521,850.5C 519.698,851.085 518.531,851.751 517.5,852.5C 516.5,852.5 515.5,852.5 514.5,852.5C 514.227,850.549 514.893,849.049 516.5,848C 515.194,842.914 514.527,837.58 514.5,832C 516.603,763.501 518.603,695.001 520.5,626.5C 521.451,625.081 521.784,623.415 521.5,621.5C 523.167,621.5 524.833,621.5 526.5,621.5C 526.171,627.537 526.504,633.537 527.5,639.5C 528.295,633.033 528.628,626.7 528.5,620.5C 540.254,617.712 547.587,610.378 550.5,598.5C 541.518,597.668 532.518,597.168 523.5,597C 522.934,596.005 522.267,595.172 521.5,594.5C 521.275,578.961 521.942,563.461 523.5,548C 521.312,526.524 520.646,505.024 521.5,483.5 Z"/></g>
<g><path style="opacity:1" fill="#426799" d="M 649.5,602.5 C 649.833,602.5 650.167,602.5 650.5,602.5C 650.442,608.918 651.108,615.252 652.5,621.5C 649.293,619.891 646.293,620.225 643.5,622.5C 642.713,621.758 642.047,620.925 641.5,620C 632.194,617.857 625.861,612.357 622.5,603.5C 630.248,604.801 638.082,605.801 646,606.5C 648.756,606.576 649.923,605.243 649.5,602.5 Z"/></g>
<g><path style="opacity:1" fill="#17191b" d="M 921.5,578.5 C 932.833,578.5 944.167,578.5 955.5,578.5C 1060.17,578.333 1164.83,578.5 1269.5,579C 1276.67,580.833 1281.17,585.333 1283,592.5C 1283.67,600.833 1283.67,609.167 1283,617.5C 1281.26,624.237 1277.1,628.737 1270.5,631C 1127.17,631.667 983.833,631.667 840.5,631C 834.64,629.141 830.807,625.307 829,619.5C 828.333,609.5 828.333,599.5 829,589.5C 831.332,583.836 835.499,580.336 841.5,579C 868.165,578.5 894.831,578.333 921.5,578.5 Z"/></g>
<g><path style="opacity:1" fill="#6b6b6d" d="M 1269.5,582.5 C 1165.83,582.5 1062.17,582.5 958.5,582.5C 958.5,597.833 958.5,613.167 958.5,628.5C 957.504,613.009 957.17,597.342 957.5,581.5C 1061.67,581.167 1165.67,581.501 1269.5,582.5 Z"/></g>
<g><path style="opacity:1" fill="#0844f4" d="M 955.5,582.5 C 955.5,597.833 955.5,613.167 955.5,628.5C 949.5,628.5 943.5,628.5 937.5,628.5C 932.251,613.337 927.584,598.004 923.5,582.5C 934.167,582.5 944.833,582.5 955.5,582.5 Z"/></g>
<g><path style="opacity:1" fill="#1e82f4" d="M 955.5,582.5 C 944.833,582.5 934.167,582.5 923.5,582.5C 927.584,598.004 932.251,613.337 937.5,628.5C 905.165,628.667 872.832,628.5 840.5,628C 835.577,625.673 832.41,621.84 831,616.5C 830.09,607.756 830.424,599.089 832,590.5C 834.222,586.612 837.388,583.779 841.5,582C 879.669,581.169 917.669,581.336 955.5,582.5 Z"/></g>
<g><path style="opacity:1" fill="#fdfefd" d="M 1269.5,582.5 C 1273.79,583.236 1276.96,585.569 1279,589.5C 1280.59,599.092 1280.92,608.758 1280,618.5C 1278.17,623 1275,626.167 1270.5,628C 1166.5,628.5 1062.5,628.667 958.5,628.5C 958.5,613.167 958.5,597.833 958.5,582.5C 1062.17,582.5 1165.83,582.5 1269.5,582.5 Z"/></g>
<g><path style="opacity:1" fill="#dff2fe" d="M 981.5,592.5 C 1067.5,592.333 1153.5,592.5 1239.5,593C 1246.59,593.591 1249.93,597.424 1249.5,604.5C 1250.11,610.856 1247.78,615.689 1242.5,619C 1156.17,619.667 1069.83,619.667 983.5,619C 980.541,618.228 978.041,616.728 976,614.5C 975.333,609.167 975.333,603.833 976,598.5C 978.011,596.656 979.845,594.656 981.5,592.5 Z"/></g>
<g><path style="opacity:1" fill="#c1e5fe" d="M 999.5,594.5 C 1057.66,593.501 1116,593.168 1174.5,593.5C 1176.02,601.729 1178.35,609.729 1181.5,617.5C 1123.5,618.5 1065.5,618.833 1007.5,618.5C 1005.08,610.909 1002.91,603.243 1001,595.5C 1000.62,594.944 1000.12,594.611 999.5,594.5 Z"/></g>
<g><path style="opacity:1" fill="#c1e5fd" d="M 939.5,633.5 C 950.674,632.176 962.007,632.176 973.5,633.5C 974.543,637.92 975.876,642.254 977.5,646.5C 966.186,647.499 954.853,647.832 943.5,647.5C 942.107,642.753 940.774,638.086 939.5,633.5 Z"/></g>
<g><path style="opacity:1" fill="#c1e5fe" d="M 1012.5,632.5 C 1070.5,632.167 1128.5,632.5 1186.5,633.5C 1188.57,638.05 1190.24,642.717 1191.5,647.5C 1133.17,647.5 1074.83,647.5 1016.5,647.5C 1015.92,642.235 1014.58,637.235 1012.5,632.5 Z"/></g>
<g><path style="opacity:1" fill="#416798" d="M 596.5,716.5 C 594.749,706.602 592.415,696.936 589.5,687.5C 591.533,657.957 595.033,628.624 600,599.5C 599.672,638.667 598.505,677.667 596.5,716.5 Z"/></g>
<g><path style="opacity:1" fill="#080809" d="M 1207.5,701.5 C 1125.5,701.5 1043.5,701.5 961.5,701.5C 921.499,701.667 881.499,701.5 841.5,701C 836.6,700.26 832.933,697.76 830.5,693.5C 830.013,692.527 829.513,691.527 829,690.5C 828.5,680.839 828.334,671.172 828.5,661.5C 830.255,655.811 833.922,651.978 839.5,650C 983.833,649.333 1128.17,649.333 1272.5,650C 1278.16,652.332 1281.66,656.499 1283,662.5C 1283.67,671.167 1283.67,679.833 1283,688.5C 1281.2,695.624 1276.7,699.791 1269.5,701C 1248.84,701.5 1228.17,701.667 1207.5,701.5 Z"/></g>
<g><path style="opacity:1" fill="#0844f3" d="M 945.5,651.5 C 948.833,651.5 952.167,651.5 955.5,651.5C 955.5,661.5 955.5,671.5 955.5,681.5C 951.988,671.632 948.655,661.632 945.5,651.5 Z"/></g>
<g><path style="opacity:1" fill="#1e82f4" d="M 945.5,651.5 C 948.655,661.632 951.988,671.632 955.5,681.5C 955.5,687.5 955.5,693.5 955.5,699.5C 918.498,699.667 881.498,699.5 844.5,699C 837.872,697.708 833.372,693.874 831,687.5C 830.333,679.5 830.333,671.5 831,663.5C 832.729,657.526 836.562,653.692 842.5,652C 876.832,651.5 911.165,651.333 945.5,651.5 Z"/></g>
<g><path style="opacity:1" fill="#f7f7f7" d="M 958.5,651.5 C 1061.83,651.333 1165.17,651.5 1268.5,652C 1278.92,656.139 1282.92,663.806 1280.5,675C 1283.24,687.548 1278.57,695.548 1266.5,699C 1163.83,699.5 1061.17,699.667 958.5,699.5C 958.5,683.5 958.5,667.5 958.5,651.5 Z"/></g>
<g><path style="opacity:1" fill="#0f0f0f" d="M 1223.5,665.5 C 1224.5,665.5 1225.5,665.5 1226.5,665.5C 1226.34,666.873 1226.51,668.207 1227,669.5C 1228.93,666.895 1230.76,666.895 1232.5,669.5C 1231.74,670.719 1230.74,671.719 1229.5,672.5C 1231.76,673.345 1232.43,674.678 1231.5,676.5C 1230,677.052 1228.33,677.052 1226.5,676.5C 1226.5,677.5 1226.5,678.5 1226.5,679.5C 1225.5,679.5 1224.5,679.5 1223.5,679.5C 1223.58,676.513 1222.41,675.847 1220,677.5C 1217.02,676.045 1216.85,674.378 1219.5,672.5C 1216.85,670.622 1217.02,668.955 1220,667.5C 1222.41,669.153 1223.58,668.487 1223.5,665.5 Z"/></g>
<g><path style="opacity:1" fill="#101010" d="M 1207.5,665.5 C 1208.83,665.5 1210.17,665.5 1211.5,665.5C 1211.09,668.276 1211.92,668.943 1214,667.5C 1216.98,668.955 1217.15,670.622 1214.5,672.5C 1217.15,674.378 1216.98,676.045 1214,677.5C 1211.59,675.847 1210.42,676.513 1210.5,679.5C 1209.5,679.5 1208.5,679.5 1207.5,679.5C 1207.62,676.795 1206.62,676.128 1204.5,677.5C 1201.87,675.916 1201.87,674.249 1204.5,672.5C 1202.96,671.468 1202.46,670.135 1203,668.5C 1204.11,667.289 1205.28,667.289 1206.5,668.5C 1207.39,667.675 1207.72,666.675 1207.5,665.5 Z"/></g>
<g><path style="opacity:1" fill="#0d0d0d" d="M 1191.5,665.5 C 1192.83,665.5 1194.17,665.5 1195.5,665.5C 1195.38,668.205 1196.38,668.872 1198.5,667.5C 1201.13,669.084 1201.13,670.751 1198.5,672.5C 1200.04,673.532 1200.54,674.865 1200,676.5C 1198.89,677.711 1197.72,677.711 1196.5,676.5C 1195.61,677.325 1195.28,678.325 1195.5,679.5C 1194.17,679.5 1192.83,679.5 1191.5,679.5C 1191.62,676.795 1190.62,676.128 1188.5,677.5C 1185.87,675.916 1185.87,674.249 1188.5,672.5C 1186.96,671.468 1186.46,670.135 1187,668.5C 1188.11,667.289 1189.28,667.289 1190.5,668.5C 1191.39,667.675 1191.72,666.675 1191.5,665.5 Z"/></g>
<g><path style="opacity:1" fill="#101010" d="M 1175.5,665.5 C 1176.83,665.5 1178.17,665.5 1179.5,665.5C 1179.38,668.205 1180.38,668.872 1182.5,667.5C 1185.13,669.084 1185.13,670.751 1182.5,672.5C 1184.04,673.532 1184.54,674.865 1184,676.5C 1182.89,677.711 1181.72,677.711 1180.5,676.5C 1179.61,677.325 1179.28,678.325 1179.5,679.5C 1178.17,679.5 1176.83,679.5 1175.5,679.5C 1175.62,676.795 1174.62,676.128 1172.5,677.5C 1171.71,676.758 1171.05,675.925 1170.5,675C 1173.17,673.333 1173.17,671.667 1170.5,670C 1171.29,667.664 1172.63,667.164 1174.5,668.5C 1175.39,667.675 1175.72,666.675 1175.5,665.5 Z"/></g>
<g><path style="opacity:1" fill="#121212" d="M 1159.5,665.5 C 1160.83,665.5 1162.17,665.5 1163.5,665.5C 1163.38,668.205 1164.38,668.872 1166.5,667.5C 1169.82,668.761 1170.15,670.428 1167.5,672.5C 1170.15,674.572 1169.82,676.239 1166.5,677.5C 1164.38,676.128 1163.38,676.795 1163.5,679.5C 1162.17,679.5 1160.83,679.5 1159.5,679.5C 1159.62,676.795 1158.62,676.128 1156.5,677.5C 1153.85,675.428 1154.18,673.761 1157.5,672.5C 1155.52,671.725 1154.69,670.391 1155,668.5C 1156.11,667.289 1157.28,667.289 1158.5,668.5C 1159.39,667.675 1159.72,666.675 1159.5,665.5 Z"/></g>
<g><path style="opacity:1" fill="#151515" d="M 1143.5,665.5 C 1145.29,665.215 1146.95,665.548 1148.5,666.5C 1147.49,667.396 1147.49,668.062 1148.5,668.5C 1150.71,667.018 1152.38,667.518 1153.5,670C 1150.96,671.563 1150.96,673.063 1153.5,674.5C 1152.2,678.039 1150.37,678.373 1148,675.5C 1147.51,676.549 1147.67,677.549 1148.5,678.5C 1146.95,679.452 1145.29,679.785 1143.5,679.5C 1143.91,676.724 1143.08,676.057 1141,677.5C 1138.2,675.952 1138.03,674.286 1140.5,672.5C 1140.02,671.522 1139.36,670.689 1138.5,670C 1139.54,668.024 1140.88,667.524 1142.5,668.5C 1143.39,667.675 1143.72,666.675 1143.5,665.5 Z"/></g>
<g><path style="opacity:1" fill="#111111" d="M 1112.5,665.5 C 1113.83,665.5 1115.17,665.5 1116.5,665.5C 1116.38,668.205 1117.38,668.872 1119.5,667.5C 1120.5,668.167 1121.5,668.833 1122.5,669.5C 1123.94,667.599 1125.6,667.266 1127.5,668.5C 1128.39,667.675 1128.72,666.675 1128.5,665.5C 1129.83,665.5 1131.17,665.5 1132.5,665.5C 1132.38,668.205 1133.38,668.872 1135.5,667.5C 1138.06,669.457 1137.73,671.123 1134.5,672.5C 1137.73,673.877 1138.06,675.543 1135.5,677.5C 1133.38,676.128 1132.38,676.795 1132.5,679.5C 1131.17,679.5 1129.83,679.5 1128.5,679.5C 1129.05,675.416 1128.05,674.749 1125.5,677.5C 1122.18,676.239 1121.85,674.572 1124.5,672.5C 1122.83,669.833 1121.17,669.833 1119.5,672.5C 1121.54,673.503 1121.88,674.837 1120.5,676.5C 1119.61,677.59 1118.61,677.59 1117.5,676.5C 1116.61,677.325 1116.28,678.325 1116.5,679.5C 1115.17,679.5 1113.83,679.5 1112.5,679.5C 1112.62,676.795 1111.62,676.128 1109.5,677.5C 1106.87,675.916 1106.87,674.249 1109.5,672.5C 1107.96,671.468 1107.46,670.135 1108,668.5C 1109.11,667.289 1110.28,667.289 1111.5,668.5C 1112.39,667.675 1112.72,666.675 1112.5,665.5 Z"/></g>
<g><path style="opacity:1" fill="#0d0d0d" d="M 1096.5,665.5 C 1097.83,665.5 1099.17,665.5 1100.5,665.5C 1099.95,669.584 1100.95,670.251 1103.5,667.5C 1106.13,669.084 1106.13,670.751 1103.5,672.5C 1106.13,674.249 1106.13,675.916 1103.5,677.5C 1100.95,674.749 1099.95,675.416 1100.5,679.5C 1099.17,679.5 1097.83,679.5 1096.5,679.5C 1096.62,676.795 1095.62,676.128 1093.5,677.5C 1091.08,675.714 1091.08,674.048 1093.5,672.5C 1091.96,671.468 1091.46,670.135 1092,668.5C 1093.11,667.289 1094.28,667.289 1095.5,668.5C 1096.39,667.675 1096.72,666.675 1096.5,665.5 Z"/></g>
<g><path style="opacity:1" fill="#101010" d="M 1080.5,665.5 C 1081.83,665.5 1083.17,665.5 1084.5,665.5C 1084.38,668.205 1085.38,668.872 1087.5,667.5C 1091.5,669.167 1091.5,670.833 1087.5,672.5C 1089.04,673.532 1089.54,674.865 1089,676.5C 1087.89,677.711 1086.72,677.711 1085.5,676.5C 1084.61,677.325 1084.28,678.325 1084.5,679.5C 1083.5,679.5 1082.5,679.5 1081.5,679.5C 1081.72,675.485 1080.56,674.819 1078,677.5C 1075.02,676.045 1074.85,674.378 1077.5,672.5C 1074.85,670.622 1075.02,668.955 1078,667.5C 1080.08,668.943 1080.91,668.276 1080.5,665.5 Z"/></g>
<g><path style="opacity:1" fill="#0d0d0d" d="M 1065.5,665.5 C 1066.5,665.5 1067.5,665.5 1068.5,665.5C 1068.42,668.487 1069.59,669.153 1072,667.5C 1075.35,669.364 1075.18,671.031 1071.5,672.5C 1075.18,673.969 1075.35,675.636 1072,677.5C 1069.59,675.847 1068.42,676.513 1068.5,679.5C 1067.5,679.5 1066.5,679.5 1065.5,679.5C 1065.72,678.325 1065.39,677.325 1064.5,676.5C 1063.26,677.246 1061.93,677.579 1060.5,677.5C 1060.33,675.508 1061,673.842 1062.5,672.5C 1061,671.158 1060.33,669.492 1060.5,667.5C 1061.93,667.421 1063.26,667.754 1064.5,668.5C 1065.39,667.675 1065.72,666.675 1065.5,665.5 Z"/></g>
<g><path style="opacity:1" fill="#141414" d="M 1049.5,665.5 C 1050.83,665.5 1052.17,665.5 1053.5,665.5C 1053.35,666.552 1053.52,667.552 1054,668.5C 1055.33,667.167 1056.67,667.167 1058,668.5C 1058.54,670.135 1058.04,671.468 1056.5,672.5C 1059.2,674.543 1059.03,676.21 1056,677.5C 1053.44,674.819 1052.28,675.485 1052.5,679.5C 1051.5,679.5 1050.5,679.5 1049.5,679.5C 1049.62,676.795 1048.62,676.128 1046.5,677.5C 1043.87,675.916 1043.87,674.249 1046.5,672.5C 1044.96,671.468 1044.46,670.135 1045,668.5C 1046.11,667.289 1047.28,667.289 1048.5,668.5C 1049.39,667.675 1049.72,666.675 1049.5,665.5 Z"/></g>
<g><path style="opacity:1" fill="#111111" d="M 1033.5,665.5 C 1034.83,665.5 1036.17,665.5 1037.5,665.5C 1037.38,668.205 1038.38,668.872 1040.5,667.5C 1043.13,669.084 1043.13,670.751 1040.5,672.5C 1042.04,673.532 1042.54,674.865 1042,676.5C 1040.89,677.711 1039.72,677.711 1038.5,676.5C 1037.61,677.325 1037.28,678.325 1037.5,679.5C 1036.17,679.5 1034.83,679.5 1033.5,679.5C 1034.05,675.416 1033.05,674.749 1030.5,677.5C 1027.87,675.916 1027.87,674.249 1030.5,672.5C 1028.96,671.468 1028.46,670.135 1029,668.5C 1030.11,667.289 1031.28,667.289 1032.5,668.5C 1033.39,667.675 1033.72,666.675 1033.5,665.5 Z"/></g>
<g><path style="opacity:1" fill="#111111" d="M 1017.5,665.5 C 1018.83,665.5 1020.17,665.5 1021.5,665.5C 1021.38,668.205 1022.38,668.872 1024.5,667.5C 1028.5,669.167 1028.5,670.833 1024.5,672.5C 1028.5,674.167 1028.5,675.833 1024.5,677.5C 1022.38,676.128 1021.38,676.795 1021.5,679.5C 1020.17,679.5 1018.83,679.5 1017.5,679.5C 1017.62,676.795 1016.62,676.128 1014.5,677.5C 1013.71,676.758 1013.05,675.925 1012.5,675C 1013.36,674.311 1014.02,673.478 1014.5,672.5C 1011.59,668.984 1012.26,667.651 1016.5,668.5C 1017.39,667.675 1017.72,666.675 1017.5,665.5 Z"/></g>
<g><path style="opacity:1" fill="#121212" d="M 1001.5,665.5 C 1002.83,665.5 1004.17,665.5 1005.5,665.5C 1005.42,668.487 1006.59,669.153 1009,667.5C 1012.35,669.364 1012.18,671.031 1008.5,672.5C 1012.5,674.167 1012.5,675.833 1008.5,677.5C 1006.38,676.128 1005.38,676.795 1005.5,679.5C 1004.17,679.5 1002.83,679.5 1001.5,679.5C 1001.62,676.795 1000.62,676.128 998.5,677.5C 996.078,675.714 996.078,674.048 998.5,672.5C 998.023,671.522 997.357,670.689 996.5,670C 997.292,667.664 998.625,667.164 1000.5,668.5C 1001.39,667.675 1001.72,666.675 1001.5,665.5 Z"/></g>
<g><path style="opacity:1" fill="#def2fe" d="M 830.5,693.5 C 832.933,697.76 836.6,700.26 841.5,701C 881.499,701.5 921.499,701.667 961.5,701.5C 968.487,723.551 975.653,745.551 983,767.5C 983.696,770.478 984.196,773.478 984.5,776.5C 996.171,776.667 1007.84,776.5 1019.5,776C 1011.29,751.785 1003.29,727.452 995.5,703C 1008.83,702.5 1022.16,702.333 1035.5,702.5C 1042.68,727.195 1050.34,751.695 1058.5,776C 1081.67,776.168 1104.67,776.668 1127.5,777.5C 986.5,777.5 845.5,777.5 704.5,777.5C 705.641,776.661 706.974,775.994 708.5,775.5C 757.317,776.231 806.317,776.564 855.5,776.5C 850.145,758.072 844.645,739.738 839,721.5C 834.754,712.289 831.921,702.955 830.5,693.5 Z"/></g>
<g><path style="opacity:1" fill="#c1e5fe" d="M 961.5,701.5 C 1043.5,701.5 1125.5,701.5 1207.5,701.5C 1210.6,707.176 1213.1,713.176 1215,719.5C 1220.03,736.566 1225.36,753.566 1231,770.5C 1231.5,772.81 1231.66,775.143 1231.5,777.5C 1196.83,777.5 1162.17,777.5 1127.5,777.5C 1104.67,776.668 1081.67,776.168 1058.5,776C 1050.34,751.695 1042.68,727.195 1035.5,702.5C 1022.16,702.333 1008.83,702.5 995.5,703C 1003.29,727.452 1011.29,751.785 1019.5,776C 1007.84,776.5 996.171,776.667 984.5,776.5C 984.196,773.478 983.696,770.478 983,767.5C 975.653,745.551 968.487,723.551 961.5,701.5 Z"/></g>
<g><path style="opacity:1" fill="#c1e5fd" d="M 589.5,687.5 C 592.415,696.936 594.749,706.602 596.5,716.5C 606.105,760.455 615.605,804.455 625,848.5C 625.687,851.426 627.52,852.759 630.5,852.5C 630.5,855.5 630.5,858.5 630.5,861.5C 628.973,861.427 627.973,862.094 627.5,863.5C 608.833,863.5 590.167,863.5 571.5,863.5C 569.685,862.37 567.685,861.704 565.5,861.5C 565.5,858.5 565.5,855.5 565.5,852.5C 566.978,852.762 568.311,852.429 569.5,851.5C 576.108,796.801 582.775,742.134 589.5,687.5 Z"/></g>
<g><path style="opacity:1" fill="#f7f9fa" d="M 670.5,756.5 C 676.803,767.798 686.136,775.465 698.5,779.5C 690.54,799.69 686.874,820.69 687.5,842.5C 685.579,841.637 683.579,840.971 681.5,840.5C 677.979,812.475 674.312,784.475 670.5,756.5 Z"/></g>
<g><path style="opacity:1" fill="#07288b" d="M 707.5,780.5 C 722.167,780.5 736.833,780.5 751.5,780.5C 751.672,781.492 751.338,782.158 750.5,782.5C 736.167,781.833 721.833,781.167 707.5,780.5 Z"/></g>
<g><path style="opacity:1" fill="#fcfcfc" d="M 751.5,780.5 C 809.833,780.5 868.167,780.5 926.5,780.5C 907.578,799.338 894.578,821.671 887.5,847.5C 837.167,847.5 786.833,847.5 736.5,847.5C 734.988,824.402 739.655,802.735 750.5,782.5C 751.338,782.158 751.672,781.492 751.5,780.5 Z"/></g>
<g><path style="opacity:1" fill="#0b44f3" d="M 698.5,779.5 C 701.482,779.963 704.482,780.296 707.5,780.5C 721.833,781.167 736.167,781.833 750.5,782.5C 739.655,802.735 734.988,824.402 736.5,847.5C 736.5,848.5 736.5,849.5 736.5,850.5C 737.167,854.833 737.833,859.167 738.5,863.5C 721.833,863.5 705.167,863.5 688.5,863.5C 688.167,857.5 687.833,851.5 687.5,845.5C 687.5,844.5 687.5,843.5 687.5,842.5C 686.874,820.69 690.54,799.69 698.5,779.5 Z"/></g>
<g><path style="opacity:1" fill="#0a44f3" d="M 926.5,780.5 C 994.167,780.5 1061.83,780.5 1129.5,780.5C 1148.43,799.349 1161.43,821.682 1168.5,847.5C 1169.11,848.391 1169.44,849.391 1169.5,850.5C 1174.64,873.752 1174.81,897.085 1170,920.5C 1167.52,927.752 1165.35,935.085 1163.5,942.5C 1210.25,949.698 1247.08,934.032 1274,895.5C 1282.29,881.597 1287.12,866.597 1288.5,850.5C 1288.5,849.5 1288.5,848.5 1288.5,847.5C 1289.88,822.709 1283.21,800.376 1268.5,780.5C 1285.5,780.5 1302.5,780.5 1319.5,780.5C 1322.57,789.007 1325.41,797.673 1328,806.5C 1329.98,814.376 1331.15,822.376 1331.5,830.5C 1334,870.879 1322.5,906.545 1297,937.5C 1253.44,983.121 1201.11,997.454 1140,980.5C 1120.49,1001.84 1096.99,1017.01 1069.5,1026C 1013.83,1040.01 965.163,1027.51 923.5,988.5C 890.208,1003.35 855.541,1007.68 819.5,1001.5C 819.5,984.833 819.5,968.167 819.5,951.5C 841.213,956.978 862.88,956.811 884.5,951C 888.354,949.953 892.02,948.453 895.5,946.5C 881.776,915.498 878.776,883.498 886.5,850.5C 887.11,849.609 887.443,848.609 887.5,847.5C 894.578,821.671 907.578,799.338 926.5,780.5 Z"/></g>
<g><path style="opacity:1" fill="#fcfcfc" d="M 1129.5,780.5 C 1175.83,780.5 1222.17,780.5 1268.5,780.5C 1283.21,800.376 1289.88,822.709 1288.5,847.5C 1248.5,847.5 1208.5,847.5 1168.5,847.5C 1161.43,821.682 1148.43,799.349 1129.5,780.5 Z"/></g>
<g><path style="opacity:1" fill="#fcfcfd" d="M 1040.5,847.5 C 1032.83,847.5 1025.17,847.5 1017.5,847.5C 1018.07,826.6 1015.07,806.267 1008.5,786.5C 1008.71,785.914 1009.04,785.414 1009.5,785C 1021.83,783 1034.17,783 1046.5,785C 1048.25,785.471 1049.91,786.138 1051.5,787C 1043.52,806.299 1039.85,826.466 1040.5,847.5 Z"/></g>
<g><path style="opacity:1" fill="#fafbfc" d="M 1122.5,847.5 C 1109.83,847.5 1097.17,847.5 1084.5,847.5C 1082.93,833.083 1085.09,819.083 1091,805.5C 1105.5,816.501 1116,830.501 1122.5,847.5 Z"/></g>
<g><path style="opacity:1" fill="#fafbfc" d="M 967.5,847.5 C 956.167,847.5 944.833,847.5 933.5,847.5C 939.624,831.036 949.624,817.37 963.5,806.5C 967.61,820.053 968.943,833.72 967.5,847.5 Z"/></g>
<g><path style="opacity:1" fill="#101115" d="M 681.5,840.5 C 683.579,840.971 685.579,841.637 687.5,842.5C 687.5,843.5 687.5,844.5 687.5,845.5C 685.5,844.833 683.5,844.167 681.5,843.5C 681.5,842.5 681.5,841.5 681.5,840.5 Z"/></g>
<g><path style="opacity:1" fill="#1c1f22" d="M 736.5,847.5 C 786.833,847.5 837.167,847.5 887.5,847.5C 887.443,848.609 887.11,849.609 886.5,850.5C 836.5,850.5 786.5,850.5 736.5,850.5C 736.5,849.5 736.5,848.5 736.5,847.5 Z"/></g>
<g><path style="opacity:1" fill="#060607" d="M 933.5,847.5 C 944.833,847.5 956.167,847.5 967.5,847.5C 967.5,848.167 967.5,848.833 967.5,849.5C 955.833,849.5 944.167,849.5 932.5,849.5C 932.833,848.833 933.167,848.167 933.5,847.5 Z"/></g>
<g><path style="opacity:1" fill="#1c1f22" d="M 1017.5,847.5 C 1025.17,847.5 1032.83,847.5 1040.5,847.5C 1040.5,848.5 1040.5,849.5 1040.5,850.5C 1032.83,850.5 1025.17,850.5 1017.5,850.5C 1017.5,849.5 1017.5,848.5 1017.5,847.5 Z"/></g>
<g><path style="opacity:1" fill="#1c1f22" d="M 1084.5,847.5 C 1097.17,847.5 1109.83,847.5 1122.5,847.5C 1123.4,848.209 1123.74,849.209 1123.5,850.5C 1110.5,850.5 1097.5,850.5 1084.5,850.5C 1084.5,849.5 1084.5,848.5 1084.5,847.5 Z"/></g>
<g><path style="opacity:1" fill="#1c1f22" d="M 1168.5,847.5 C 1208.5,847.5 1248.5,847.5 1288.5,847.5C 1288.5,848.5 1288.5,849.5 1288.5,850.5C 1248.83,850.5 1209.17,850.5 1169.5,850.5C 1169.44,849.391 1169.11,848.391 1168.5,847.5 Z"/></g>
<g><path style="opacity:1" fill="#586676" d="M 932.5,849.5 C 944.167,849.5 955.833,849.5 967.5,849.5C 967.5,849.833 967.5,850.167 967.5,850.5C 955.42,850.188 943.42,850.521 931.5,851.5C 931.328,850.508 931.662,849.842 932.5,849.5 Z"/></g>
<g><path style="opacity:1" fill="#8a9398" d="M 565.5,852.5 C 549.333,852.568 533.333,852.568 517.5,852.5C 518.531,851.751 519.698,851.085 521,850.5C 535.931,851.159 550.765,851.826 565.5,852.5 Z"/></g>
<g><path style="opacity:1" fill="#879198" d="M 679.5,852.5 C 663.286,852.565 646.953,852.565 630.5,852.5C 645.706,851.819 661.039,851.152 676.5,850.5C 677.739,850.942 678.739,851.609 679.5,852.5 Z"/></g>
<g><path style="opacity:1" fill="#c1e5fe" d="M 1169.5,850.5 C 1209.17,850.5 1248.83,850.5 1288.5,850.5C 1287.12,866.597 1282.29,881.597 1274,895.5C 1247.08,934.032 1210.25,949.698 1163.5,942.5C 1165.35,935.085 1167.52,927.752 1170,920.5C 1174.81,897.085 1174.64,873.752 1169.5,850.5 Z"/></g>
<g><path style="opacity:1" fill="#c1e5fe" d="M 1017.5,850.5 C 1025.17,850.5 1032.83,850.5 1040.5,850.5C 1044.12,895.595 1063.79,931.762 1099.5,959C 1068.03,987.594 1032.03,995.261 991.5,982C 980.325,977.587 970.325,971.42 961.5,963.5C 994.247,933.011 1012.91,895.344 1017.5,850.5 Z"/></g>
<g><path style="opacity:1" fill="#fae0b3" d="M 630.5,852.5 C 646.953,852.565 663.286,852.565 679.5,852.5C 679.264,855.609 679.597,858.609 680.5,861.5C 667.187,862.358 653.853,862.691 640.5,862.5C 637.167,862.167 633.833,861.833 630.5,861.5C 630.5,858.5 630.5,855.5 630.5,852.5 Z"/></g>
<g><path style="opacity:1" fill="#c1e4fc" d="M 736.5,850.5 C 786.5,850.5 836.5,850.5 886.5,850.5C 878.776,883.498 881.776,915.498 895.5,946.5C 892.02,948.453 888.354,949.953 884.5,951C 862.88,956.811 841.213,956.978 819.5,951.5C 819.167,922.826 819.5,894.159 820.5,865.5C 821.795,864.902 823.128,864.402 824.5,864C 822.567,863.749 820.734,863.249 819,862.5C 792.241,863.495 765.408,863.828 738.5,863.5C 737.833,859.167 737.167,854.833 736.5,850.5 Z"/></g>
<g><path style="opacity:1" fill="#c1e5fd" d="M 967.5,850.5 C 964.909,879.014 953.242,903.014 932.5,922.5C 923.584,898.941 923.251,875.274 931.5,851.5C 943.42,850.521 955.42,850.188 967.5,850.5 Z"/></g>
<g><path style="opacity:1" fill="#c1e5fd" d="M 1084.5,850.5 C 1097.5,850.5 1110.5,850.5 1123.5,850.5C 1128.55,861.636 1130.88,873.47 1130.5,886C 1130.88,898.83 1128.38,910.997 1123,922.5C 1099.95,904.08 1087.12,880.08 1084.5,850.5 Z"/></g>
<g><path style="opacity:1" fill="#fae0b3" d="M 517.5,852.5 C 533.333,852.568 549.333,852.568 565.5,852.5C 565.5,855.5 565.5,858.5 565.5,861.5C 552.859,862.398 540.192,862.732 527.5,862.5C 523.534,861.838 519.534,861.505 515.5,861.5C 517.242,858.855 517.909,855.855 517.5,852.5 Z"/></g>
<g><path style="opacity:1" fill="#bfe1f9" d="M 681.5,843.5 C 683.5,844.167 685.5,844.833 687.5,845.5C 687.833,851.5 688.167,857.5 688.5,863.5C 687.167,863.5 685.833,863.5 684.5,863.5C 683.167,862.833 681.833,862.167 680.5,861.5C 679.597,858.609 679.264,855.609 679.5,852.5C 680.5,852.5 681.5,852.5 682.5,852.5C 682.632,849.43 682.299,846.43 681.5,843.5 Z"/></g>
<g><path style="opacity:1" fill="#f6a28f" d="M 515.5,861.5 C 519.534,861.505 523.534,861.838 527.5,862.5C 526.771,867.766 524.104,871.933 519.5,875C 517.866,875.494 516.199,875.66 514.5,875.5C 514.181,870.637 514.514,865.97 515.5,861.5 Z"/></g>
<g><path style="opacity:1" fill="#f6a390" d="M 630.5,861.5 C 633.833,861.833 637.167,862.167 640.5,862.5C 640.263,870.804 635.929,874.804 627.5,874.5C 627.5,871.833 627.5,869.167 627.5,866.5C 627.5,866.167 627.5,865.833 627.5,865.5C 627.5,864.833 627.5,864.167 627.5,863.5C 627.973,862.094 628.973,861.427 630.5,861.5 Z"/></g>
<g><path style="opacity:1" fill="#f47659" d="M 680.5,861.5 C 681.833,862.167 683.167,862.833 684.5,863.5C 685.514,864.674 686.847,865.34 688.5,865.5C 688.5,866.167 688.833,866.5 689.5,866.5C 693.167,869.167 696.833,871.833 700.5,874.5C 699.19,876.148 697.857,877.814 696.5,879.5C 695.534,881.396 695.201,883.396 695.5,885.5C 672.833,885.5 650.167,885.5 627.5,885.5C 627.5,881.833 627.5,878.167 627.5,874.5C 635.929,874.804 640.263,870.804 640.5,862.5C 653.853,862.691 667.187,862.358 680.5,861.5 Z"/></g>
<g><path style="opacity:1" fill="#090608" d="M 571.5,863.5 C 590.167,863.5 608.833,863.5 627.5,863.5C 627.5,864.167 627.5,864.833 627.5,865.5C 609.992,865.17 592.659,865.503 575.5,866.5C 573.77,865.974 572.436,864.974 571.5,863.5 Z"/></g>
<g><path style="opacity:1" fill="#f37558" d="M 565.5,861.5 C 567.685,861.704 569.685,862.37 571.5,863.5C 572.436,864.974 573.77,865.974 575.5,866.5C 575.5,867.167 575.833,867.5 576.5,867.5C 580.372,869.597 584.039,871.931 587.5,874.5C 583.592,877.095 581.925,880.762 582.5,885.5C 560.167,885.5 537.833,885.5 515.5,885.5C 515.5,886.5 515.5,887.5 515.5,888.5C 514.596,887.791 514.263,886.791 514.5,885.5C 514.5,884.5 514.5,883.5 514.5,882.5C 514.5,880.167 514.5,877.833 514.5,875.5C 516.199,875.66 517.866,875.494 519.5,875C 524.104,871.933 526.771,867.766 527.5,862.5C 540.192,862.732 552.859,862.398 565.5,861.5 Z"/></g>
<g><path style="opacity:1" fill="#091e6a" d="M 627.5,865.5 C 627.5,865.833 627.5,866.167 627.5,866.5C 610.325,866.17 593.325,866.503 576.5,867.5C 575.833,867.5 575.5,867.167 575.5,866.5C 592.659,865.503 609.992,865.17 627.5,865.5 Z"/></g>
<g><path style="opacity:1" fill="#061d69" d="M 688.5,865.5 C 728.839,865.167 769.172,865.5 809.5,866.5C 809.043,867.298 808.376,867.631 807.5,867.5C 768.337,866.501 729.004,866.168 689.5,866.5C 688.833,866.5 688.5,866.167 688.5,865.5 Z"/></g>
<g><path style="opacity:1" fill="#0944f3" d="M 576.5,867.5 C 593.325,866.503 610.325,866.17 627.5,866.5C 627.5,869.167 627.5,871.833 627.5,874.5C 627.5,878.167 627.5,881.833 627.5,885.5C 627.297,887.39 627.963,888.89 629.5,890C 656.833,890.667 684.167,890.667 711.5,890C 712.38,888.644 712.714,887.144 712.5,885.5C 712.528,883.418 711.861,881.584 710.5,880C 707.273,877.888 703.94,876.055 700.5,874.5C 696.833,871.833 693.167,869.167 689.5,866.5C 729.004,866.168 768.337,866.501 807.5,867.5C 768.306,880.712 729.306,894.379 690.5,908.5C 610.665,908.833 530.998,908.499 451.5,907.5C 472.47,900.01 493.47,892.676 514.5,885.5C 514.263,886.791 514.596,887.791 515.5,888.5C 528.983,889.833 542.817,890.499 557,890.5C 570.833,890.333 584.667,890.167 598.5,890C 599.811,887.726 599.811,885.56 598.5,883.5C 596.272,878.868 592.605,875.868 587.5,874.5C 584.039,871.931 580.372,869.597 576.5,867.5 Z"/></g>
<g><path style="opacity:1" fill="#f4a291" d="M 700.5,874.5 C 703.94,876.055 707.273,877.888 710.5,880C 711.861,881.584 712.528,883.418 712.5,885.5C 706.833,885.5 701.167,885.5 695.5,885.5C 695.201,883.396 695.534,881.396 696.5,879.5C 697.857,877.814 699.19,876.148 700.5,874.5 Z"/></g>
<g><path style="opacity:1" fill="#f5a391" d="M 587.5,874.5 C 592.605,875.868 596.272,878.868 598.5,883.5C 593.604,885.446 588.271,886.113 582.5,885.5C 581.925,880.762 583.592,877.095 587.5,874.5 Z"/></g>
<g><path style="opacity:1" fill="#161718" d="M 819.5,951.5 C 819.5,968.167 819.5,984.833 819.5,1001.5C 819.5,1033.17 819.5,1064.83 819.5,1096.5C 821.199,1096.34 822.866,1096.51 824.5,1097C 792.969,1108.61 761.635,1120.44 730.5,1132.5C 718.803,1136.34 707.137,1140.34 695.5,1144.5C 608.998,1144.83 522.665,1144.5 436.5,1143.5C 437.496,1143.59 438.329,1143.25 439,1142.5C 439.5,1065.5 439.667,988.501 439.5,911.5C 437.801,911.66 436.134,911.494 434.5,911C 451.152,904.728 467.818,898.561 484.5,892.5C 494.457,888.849 504.457,885.515 514.5,882.5C 514.5,883.5 514.5,884.5 514.5,885.5C 493.47,892.676 472.47,900.01 451.5,907.5C 450.624,907.369 449.957,907.702 449.5,908.5C 529.999,909.832 610.332,909.832 690.5,908.5C 729.306,894.379 768.306,880.712 807.5,867.5C 808.376,867.631 809.043,867.298 809.5,866.5C 769.172,865.5 728.839,865.167 688.5,865.5C 686.847,865.34 685.514,864.674 684.5,863.5C 685.833,863.5 687.167,863.5 688.5,863.5C 705.167,863.5 721.833,863.5 738.5,863.5C 765.408,863.828 792.241,863.495 819,862.5C 820.734,863.249 822.567,863.749 824.5,864C 823.128,864.402 821.795,864.902 820.5,865.5C 819.5,894.159 819.167,922.826 819.5,951.5 Z"/></g>
<g><path style="opacity:1" fill="#061e6b" d="M 451.5,907.5 C 530.998,908.499 610.665,908.833 690.5,908.5C 610.332,909.832 529.999,909.832 449.5,908.5C 449.957,907.702 450.624,907.369 451.5,907.5 Z"/></g>
<g><path style="opacity:1" fill="#ba5745" d="M 627.5,885.5 C 650.167,885.5 672.833,885.5 695.5,885.5C 701.167,885.5 706.833,885.5 712.5,885.5C 712.714,887.144 712.38,888.644 711.5,890C 684.167,890.667 656.833,890.667 629.5,890C 627.963,888.89 627.297,887.39 627.5,885.5 Z"/></g>
<g><path style="opacity:1" fill="#b75746" d="M 598.5,883.5 C 599.811,885.56 599.811,887.726 598.5,890C 584.667,890.167 570.833,890.333 557,890.5C 542.817,890.499 528.983,889.833 515.5,888.5C 515.5,887.5 515.5,886.5 515.5,885.5C 537.833,885.5 560.167,885.5 582.5,885.5C 588.271,886.113 593.604,885.446 598.5,883.5 Z"/></g>
<g><path style="opacity:1" fill="#c1e5fe" d="M 693.5,1140.5 C 693.5,1064.17 693.5,987.833 693.5,911.5C 696.89,910.977 700.223,910.143 703.5,909C 702.552,908.517 701.552,908.351 700.5,908.5C 738.511,894.398 776.845,880.731 815.5,867.5C 816.833,944.167 816.833,1020.83 815.5,1097.5C 774.993,1111.78 734.326,1126.12 693.5,1140.5 Z"/></g>
<g><path style="opacity:1" fill="#fefefe" d="M 442.5,911.5 C 524.5,911.5 606.5,911.5 688.5,911.5C 688.5,988.167 688.5,1064.83 688.5,1141.5C 606.5,1141.5 524.5,1141.5 442.5,1141.5C 442.5,1064.83 442.5,988.167 442.5,911.5 Z"/></g>
<g><path style="opacity:1" fill="#aecbd3" d="M 700.5,908.5 C 701.552,908.351 702.552,908.517 703.5,909C 700.223,910.143 696.89,910.977 693.5,911.5C 693.5,987.833 693.5,1064.17 693.5,1140.5C 691.503,1064.17 690.836,987.507 691.5,910.5C 694.574,910.127 697.574,909.461 700.5,908.5 Z"/></g>
<g><path style="opacity:1" fill="#5d5e60" d="M 436.5,1143.5 C 522.665,1144.5 608.998,1144.83 695.5,1144.5C 608.666,1145.83 521.666,1145.83 434.5,1144.5C 434.957,1143.7 435.624,1143.37 436.5,1143.5 Z"/></g>
</svg>
